<svg id="Layer_1" data-name="Layer 1" xmlns="http://www.w3.org/2000/svg" viewBox="0 0 160.2 168.35"><defs><style>.cls-1{fill:#fbf3e2;}</style></defs><title>jacamo</title><path class="cls-1" d="M899.82,477.19a.41.41,0,0,0,0-.19c0-.12,0-.23,0-.36l.13-.5,0-.08a2.87,2.87,0,0,1,.15-.37,1,1,0,0,0,.08-.18,1.39,1.39,0,0,0,.06-.19,1.11,1.11,0,0,1,.15-.36l0-.13c.08-.13.14-.28.23-.41s.2-.22.28-.31l.17-.16c.12-.16.25-.31.39-.48s.09-.11.15-.16A1.91,1.91,0,0,1,902,473a3,3,0,0,1,.35-.23l.18-.13a.83.83,0,0,0,.16-.12,4.16,4.16,0,0,1,.73-.44,1,1,0,0,0,.2-.08l.2-.1a2.37,2.37,0,0,1,.35-.19.84.84,0,0,0,.2-.08,3.73,3.73,0,0,1,.4-.14,2,2,0,0,1,.39-.06.52.52,0,0,0,.22,0,5.57,5.57,0,0,1,.6-.08c.19,0,.41,0,.6,0h.16a2,2,0,0,1,.43,0l.58.08a.87.87,0,0,1,.66.4.89.89,0,0,1,0,.77,1.25,1.25,0,0,1-.56.64,1.23,1.23,0,0,1-.81.13.75.75,0,0,0-.26,0h-.25a4.5,4.5,0,0,0-.51,0h-.08l-.42.05a3.39,3.39,0,0,0-.45.12l-.05,0-.26.07-.25,0a3.72,3.72,0,0,0-.48.27l-.28.21-.17.16a2.43,2.43,0,0,0-.38.34l0,.05a.91.91,0,0,1-.21.18c-.08.09-.17.16-.22.23a3.49,3.49,0,0,0-.31.48,1.15,1.15,0,0,0-.11.29c0,.07-.06.15-.08.22l0,.08a3.15,3.15,0,0,0-.14.44c0,.18-.08.36-.11.52a3.16,3.16,0,0,0,0,.32l0,.2a2.74,2.74,0,0,0,.08.5,2.34,2.34,0,0,0,.18.47,3.06,3.06,0,0,0,.23.43,1.8,1.8,0,0,1,.11.2,1.39,1.39,0,0,0,.15.22,3.06,3.06,0,0,0,.37.35,1.87,1.87,0,0,0,.28.16,1.19,1.19,0,0,1,.16.08,1.56,1.56,0,0,1,.19.13,1.51,1.51,0,0,0,.25.13l.28.07.25.05h.07a2.5,2.5,0,0,0,.44.07,3.14,3.14,0,0,0,.52,0,2.51,2.51,0,0,0,.55-.06l.19,0a1.44,1.44,0,0,0,.35-.07,3.46,3.46,0,0,0,.47-.18l0,0a2,2,0,0,0,.48-.25l.06,0a2.62,2.62,0,0,0,.37-.24,1,1,0,0,0,.22-.2l.14-.16a3.67,3.67,0,0,0,.34-.36,3.81,3.81,0,0,0,.29-.41l0-.06a3.48,3.48,0,0,0,.22-.36,1.69,1.69,0,0,0,.11-.34l0-.12a.77.77,0,0,1,.07-.16l.1-.29a1.06,1.06,0,0,1,.41-.71,1.19,1.19,0,0,1,.81-.23,1,1,0,0,1,.68.39.94.94,0,0,1,.17.74,2.26,2.26,0,0,1-.11.37,1,1,0,0,0-.08.18,2.67,2.67,0,0,1-.2.55l-.06.2c0,.11-.08.22-.14.35a5.44,5.44,0,0,1-.32.5,3.3,3.3,0,0,1-.34.49l-.32.37-.08.08a1.07,1.07,0,0,0-.14.16,3.58,3.58,0,0,1-.27.29l-.48.37c-.16.11-.33.23-.51.34a2,2,0,0,1-.34.15,1.05,1.05,0,0,0-.18.08l-.16.07a2.22,2.22,0,0,1-.38.18l0,0-.51.19-.56.12-.47.07h-.1l-.57.05h-.2l-.38,0a1.28,1.28,0,0,1-.36-.07,1.42,1.42,0,0,0-.2,0c-.19,0-.37-.06-.55-.11l-.2,0a2.35,2.35,0,0,1-.36-.09,3.36,3.36,0,0,1-.5-.21l-.49-.25a1.16,1.16,0,0,1-.26-.22l-.15-.13-.14-.1a1.54,1.54,0,0,1-.3-.22.5.5,0,0,0-.13-.12,2.91,2.91,0,0,1-.27-.24l-.22-.33-.08-.12a1.59,1.59,0,0,1-.17-.31l-.07-.17a1.29,1.29,0,0,0-.09-.16,1.14,1.14,0,0,1-.16-.31,2.64,2.64,0,0,1-.12-.4l0-.13c0-.15,0-.23-.06-.39v-.15l-.05-.17a3.6,3.6,0,0,1,0-.36,2.56,2.56,0,0,1,0-.39Z" transform="translate(-880.14 -455.06)"/><path class="cls-1" d="M916.65,476.72a1,1,0,0,1-.14.57,1.16,1.16,0,0,1-.42.45.61.61,0,0,1-.31.05.06.06,0,0,1-.07,0,.9.9,0,0,1-.73-.18.83.83,0,0,1-.41-.62,1.18,1.18,0,0,1,0-.3,1.06,1.06,0,0,0,0-.24c0-.14,0-.23,0-.29a.63.63,0,0,0,0-.24c0-.22,0-.32,0-.54a1.28,1.28,0,0,1,0-.28c0-.05,0-.13,0-.24a.62.62,0,0,0,0-.2,1.29,1.29,0,0,1-.06-.32,1.64,1.64,0,0,1,0-.33.44.44,0,0,0,0-.21,1.34,1.34,0,0,0,0-.24,1.42,1.42,0,0,1,0-.28c0-.14,0-.25,0-.3v-.24c0-.21,0-.32,0-.53s0-.2,0-.26,0-.14,0-.26a.52.52,0,0,0,0-.21,1,1,0,0,1,0-.31,1.34,1.34,0,0,1,0-.31,1.77,1.77,0,0,1,0-.23,1.67,1.67,0,0,1,0-.3c0-.1,0-.15,0-.25a1.69,1.69,0,0,0,0-.21c0-.08,0-.16,0-.3v-.26a1.35,1.35,0,0,1,0-.27v-.27a2.36,2.36,0,0,1,0-.26,2.19,2.19,0,0,1,0-.29,2.06,2.06,0,0,0,0-.25.76.76,0,0,1,0-.31c0-.1,0-.14,0-.24a1,1,0,0,0,0-.22,1.3,1.3,0,0,1,0-.21h0v-.1a.25.25,0,0,1,0-.1.24.24,0,0,1,.08-.18s0,0,0,0a.29.29,0,0,1,0-.19.24.24,0,0,1,.06-.1.38.38,0,0,1,.11-.11s0,0,0,0l.08-.09a.31.31,0,0,1,.21-.08h0s0,0,.08,0,0,0,0,0a.28.28,0,0,1,.17-.11l.12,0h.09l.16,0,0,0h0a.42.42,0,0,1,.15.06h.06l.09,0,.09.05s0,0,0,0a.33.33,0,0,1,.15.05l.06,0v0c.07.07.13.1.16.13l.21.19.19.16.22.18a1.08,1.08,0,0,1,.22.22,1.06,1.06,0,0,0,.16.17l.17.13.25.19.19.21.18.18c.09.09.16.14.2.19a1.49,1.49,0,0,0,.18.18,1.1,1.1,0,0,0,.17.13,1.37,1.37,0,0,1,.24.19l.2.19.2.18a1.85,1.85,0,0,0,.2.2l.17.17a2.07,2.07,0,0,1,.18.2l.19.18.21.2.17.17a.57.57,0,0,0,.18.15l.23.2a2.07,2.07,0,0,1,.18.2l.19.18c.1.09.16.16.2.2a1.37,1.37,0,0,0,.15.18,1.77,1.77,0,0,1,.2.21l.17.17.19.2.17.18a1,1,0,0,0,.18.15l.23.2a2.19,2.19,0,0,1,.2.23,1.08,1.08,0,0,0,.13.18c.07.07.14.1.17.14a1.36,1.36,0,0,1,.25.19,1,1,0,0,1,.25.72,1,1,0,0,1-.34.7.91.91,0,0,1-.32.2,1,1,0,0,1-.61,0,.91.91,0,0,1-.51-.27,1.88,1.88,0,0,0-.15-.12,1.34,1.34,0,0,1-.23-.18l-.18-.2a.94.94,0,0,0-.14-.16l-.16-.16-.18-.16-.17-.16a1,1,0,0,1-.18-.16l-.18-.16s-.1-.09-.17-.17a.75.75,0,0,0-.45-.2,1,1,0,0,0-.53.06l-.29.11a1.37,1.37,0,0,0-.24.07c-.13.06-.17.1-.23.13l-.27.12-.27.13-.24.11-.24.11-.26.14a1,1,0,0,0-.39.37.9.9,0,0,0-.18.48c0,.11,0,.19,0,.24a1,1,0,0,0,0,.23.74.74,0,0,0,0,.18,1.2,1.2,0,0,1,0,.3.73.73,0,0,1,0,.27.74.74,0,0,0,0,.2V476a1.09,1.09,0,0,1,0,.22c0,.13,0,.21,0,.26A1.7,1.7,0,0,0,916.65,476.72Zm1.23-6.14-.14-.1a1.55,1.55,0,0,1-.26-.18l-.18-.18-.15-.16a1,1,0,0,1-.18-.18.92.92,0,0,0-.17-.15l-.17-.15a.75.75,0,0,1-.19-.16l-.09-.06v.09c0,.12,0,.17,0,.23s0,.13,0,.24v.25a1,1,0,0,0,0,.24.91.91,0,0,1,0,.25c0,.05,0,.13,0,.23a.77.77,0,0,0,0,.2.83.83,0,0,1,0,.28c0,.15,0,.22.1.25a.36.36,0,0,0,.3,0,.67.67,0,0,0,.2-.11l.26-.12a.61.61,0,0,0,.22-.12l.25-.11a.24.24,0,0,0,.16-.19C918,470.67,917.93,470.61,917.88,470.58Z" transform="translate(-880.14 -455.06)"/><path class="cls-1" d="M935.77,465.84a.52.52,0,0,0,0,.19l.06.21a1.37,1.37,0,0,1,.08.26,1,1,0,0,0,.08.21,1.56,1.56,0,0,1,.08.27,1.33,1.33,0,0,1,0,.3,1.23,1.23,0,0,0,0,.21l.06.24.07.25c0,.1.06.16.07.22l.07.26a1,1,0,0,0,.08.21l.06.27a.94.94,0,0,1-.11.75,1.11,1.11,0,0,1-1.44.41,1.07,1.07,0,0,1-.48-.6,1,1,0,0,1-.06-.32.47.47,0,0,0,0-.19l-.14-.49c0-.11-.06-.15-.07-.19a1.31,1.31,0,0,1-.12-.3l-.14-.49-.08-.27a.56.56,0,0,0,0-.22,1.86,1.86,0,0,0-.08-.23l-.08-.27c0-.11-.07-.16-.08-.22l-.08-.26a1.11,1.11,0,0,1-.06-.3.74.74,0,0,0,0-.2c0-.14,0-.2-.07-.28a1.85,1.85,0,0,0,0-.23.74.74,0,0,0-.09-.18,1.08,1.08,0,0,1-.12-.29,2.45,2.45,0,0,1-.06-.28,2,2,0,0,0-.05-.22,1.65,1.65,0,0,0-.07-.21.84.84,0,0,1-.07-.18,1.11,1.11,0,0,1-.12.18,1.91,1.91,0,0,0-.1.23c-.06.13-.09.2-.13.27l-.11.25-.11.24-.1.28c0,.11-.06.17-.09.22s0,.15-.11.3a3.15,3.15,0,0,1-.13.29,1,1,0,0,0-.12.22,2,2,0,0,0-.1.26l-.11.25-.12.27-.11.25a1.83,1.83,0,0,0-.1.25l-.1.26a1.1,1.1,0,0,1-.66.66,1.09,1.09,0,0,1-.93-.15l-.22-.13a1.17,1.17,0,0,1-.27-.14l-.26-.17s-.11-.08-.22-.14l-.24-.17a1.08,1.08,0,0,0-.21-.14l-.24-.14-.25-.15a1.35,1.35,0,0,1-.21-.13,1,1,0,0,1-.28-.14l-.27-.17a1.67,1.67,0,0,0-.2-.15.73.73,0,0,0-.2-.1,1.28,1.28,0,0,1-.32-.14,2.22,2.22,0,0,1-.26-.19l-.2-.14s0,0,0,0v0a.6.6,0,0,0,.09.18,1.06,1.06,0,0,1,.13.28.84.84,0,0,1,.07.29.8.8,0,0,0,0,.2l.08.23a.79.79,0,0,1,.12.26,1.07,1.07,0,0,1,.08.27c0,.05,0,.11,0,.22a.56.56,0,0,0,.11.18,1.72,1.72,0,0,1,.13.27,1.22,1.22,0,0,1,.07.3l.08.21c0,.12,0,.2.07.26s0,.11.06.23.08.16.1.22l.09.25.09.25.09.24a1,1,0,0,1,.07.26l.08.23.09.24.08.24.09.25.08.22a.86.86,0,0,1,0,.75,1.14,1.14,0,0,1-.56.53,1.13,1.13,0,0,1-.79,0,.94.94,0,0,1-.54-.53,2.27,2.27,0,0,1-.08-.29,1.86,1.86,0,0,0-.05-.19,1,1,0,0,0-.1-.21,1.26,1.26,0,0,1-.11-.25,1.16,1.16,0,0,1-.08-.26l-.09-.22a.77.77,0,0,0-.1-.22l-.09-.25a1.2,1.2,0,0,0-.1-.22l-.1-.25a1.6,1.6,0,0,1-.08-.27,1.64,1.64,0,0,0-.07-.21,1.16,1.16,0,0,0-.09-.21,1.32,1.32,0,0,1-.13-.25,2.16,2.16,0,0,1-.08-.24l-.09-.24-.09-.24c0-.06,0-.12-.07-.23a1.6,1.6,0,0,1-.08-.27,1.26,1.26,0,0,0-.06-.22,1.42,1.42,0,0,0-.1-.21l-.1-.25-.09-.24c0-.06-.06-.11-.11-.23s0-.2-.08-.26,0-.11-.06-.23a.75.75,0,0,0-.1-.17.93.93,0,0,1-.15-.28l-.1-.25a.85.85,0,0,0-.06-.23,1.16,1.16,0,0,1-.08-.26c0-.05,0-.11-.07-.21a.63.63,0,0,0-.09-.2,1.51,1.51,0,0,1-.12-.27l-.09-.25a1.32,1.32,0,0,0-.07-.23.93.93,0,0,1-.06-.6,1.25,1.25,0,0,1,.46-.53,1.23,1.23,0,0,1,.66-.26,1.16,1.16,0,0,1,.63.16.81.81,0,0,0,.21.09,1.18,1.18,0,0,1,.28.14,1.54,1.54,0,0,1,.26.16l.2.13.21.1a1.53,1.53,0,0,1,.28.13,2,2,0,0,1,.26.2.61.61,0,0,0,.16.13l.22.12.24.14.2.09.28.15.21.12.26.14.22.14.22.14.23.14.2.15.24.14a1.33,1.33,0,0,0,.22.15l.22.16.19.14c.05,0,.13.06.32,0a.33.33,0,0,0,.2-.18c0-.12.07-.2.09-.25A1.34,1.34,0,0,1,930,465a1.05,1.05,0,0,1,.17-.29,1.43,1.43,0,0,0,.09-.18,1.21,1.21,0,0,0,.1-.23,1.34,1.34,0,0,1,.09-.26,1,1,0,0,0,.07-.2.94.94,0,0,1,.09-.31,1.13,1.13,0,0,1,.18-.29.55.55,0,0,0,.1-.16,1.25,1.25,0,0,0,.08-.22,1.92,1.92,0,0,1,.11-.28,1.38,1.38,0,0,1,.1-.23c0-.06,0-.13.09-.26a2.12,2.12,0,0,1,.15-.28l.11-.2c0-.08.05-.13.09-.22a.84.84,0,0,1,.09-.27c0-.12.1-.19.12-.25a1.78,1.78,0,0,1,.1-.23,2.45,2.45,0,0,0,.12-.25l.13-.23a1,1,0,0,1,.41-.51,1.35,1.35,0,0,1,.69-.16,1.12,1.12,0,0,1,.65.17.84.84,0,0,1,.36.51c0,.12.07.18.09.24l.06.25a.76.76,0,0,1,0,.3.79.79,0,0,0,0,.2,2.32,2.32,0,0,0,.08.22,2.68,2.68,0,0,1,.09.27,1.66,1.66,0,0,1,.05.28,1.78,1.78,0,0,0,0,.22c0,.09.06.15.07.19a1.46,1.46,0,0,1,.11.28,1.07,1.07,0,0,1,0,.3.52.52,0,0,0,0,.19.83.83,0,0,0,.07.21.83.83,0,0,1,.09.28l.07.26.06.23c0,.12,0,.18.06.26l.06.23a.71.71,0,0,0,.07.21,2.07,2.07,0,0,1,.09.27l.06.23a1.44,1.44,0,0,1,.09.26A1,1,0,0,1,935.77,465.84Z" transform="translate(-880.14 -455.06)"/><path class="cls-1" d="M937,458.64a1.3,1.3,0,0,1,.73-.44,1.35,1.35,0,0,0,.25-.07,1.35,1.35,0,0,1,.32-.1,1.64,1.64,0,0,1,.35,0,1.39,1.39,0,0,0,.23,0l.58-.12a1.5,1.5,0,0,1,.31-.05l.25,0a1,1,0,0,0,.22-.07,2.37,2.37,0,0,1,.35-.1,4,4,0,0,1,.62-.09c.18,0,.37,0,.56,0h.12a3.52,3.52,0,0,1,.56,0,1.21,1.21,0,0,1,.38.14l.2.06c.16.05.36.11.56.19l.18.08a1.42,1.42,0,0,1,.36.16l.06,0a3.07,3.07,0,0,1,.42.28,1.62,1.62,0,0,1,.25.28,1.49,1.49,0,0,0,.12.14c.13.15.25.31.34.42a.44.44,0,0,0,.12.15,2.11,2.11,0,0,1,.21.31c.06.14.11.29.16.43l0,.08a2,2,0,0,1,.11.49v0l0,.16a1.59,1.59,0,0,1,.07.38,5.48,5.48,0,0,1,0,.55,3.86,3.86,0,0,1-.11.53,4,4,0,0,1-.17.53,1.16,1.16,0,0,1-.2.32c0,.05-.07.09-.09.15a3.82,3.82,0,0,1-.31.47l-.1.14a2.16,2.16,0,0,1-.24.31,2,2,0,0,1-.31.24l-.15.11-.14.13a2.65,2.65,0,0,1-.3.25,3.1,3.1,0,0,1-.45.21l-.08.05c-.16.06-.34.14-.53.2s-.38.11-.57.15l-.32.05-.24,0a1.28,1.28,0,0,0-.26.07l-.31.07a.54.54,0,0,0-.33.22.56.56,0,0,0-.1.38c0,.09.05.13.06.18a1,1,0,0,1,.09.25l.05.22,0,.22.09.43a.91.91,0,0,1-.16.74,1.08,1.08,0,0,1-.65.47,1,1,0,0,1-.77-.14,1,1,0,0,1-.49-.59l-.06-.25-.06-.24c0-.14,0-.21,0-.27l-.06-.23a2,2,0,0,1-.05-.27l0-.23-.06-.25-.06-.24a1.65,1.65,0,0,0-.07-.21,2.19,2.19,0,0,1-.08-.28,1,1,0,0,1,0-.3,1,1,0,0,0,0-.2l0-.22c0-.08-.05-.13-.08-.26a1.38,1.38,0,0,1,0-.28,1.78,1.78,0,0,0,0-.22,1.07,1.07,0,0,0-.07-.23l-.06-.26c0-.14-.06-.21-.07-.26a.9.9,0,0,0,0-.24.83.83,0,0,0-.07-.21,1.92,1.92,0,0,1-.08-.27l0-.23c0-.07-.05-.12-.09-.26a2.32,2.32,0,0,1,0-.29,1.06,1.06,0,0,0,0-.2,1.81,1.81,0,0,0-.06-.2,1,1,0,0,1-.11-.28,1.81,1.81,0,0,1,0-.31.56.56,0,0,0,0-.2.9.9,0,0,0-.08-.19,1.47,1.47,0,0,1-.11-.29,2.1,2.1,0,0,1,0-.26l-.06-.23a1.31,1.31,0,0,1,0-.27,2.28,2.28,0,0,0,0-.24A.88.88,0,0,1,937,458.64Zm6.4,1.63a3,3,0,0,0-.36-.36,1.77,1.77,0,0,0-.45-.26,2.7,2.7,0,0,0-.43-.12H942l-.2-.06a1.1,1.1,0,0,0-.33-.06,2.43,2.43,0,0,0-.55.08l-.33,0-.28,0a1.68,1.68,0,0,0-.27.07l-.32.07a.82.82,0,0,0-.38.21.51.51,0,0,0,0,.41l0,.21a1,1,0,0,1,.08.25.74.74,0,0,1,0,.28c0,.05,0,.1,0,.21a.62.62,0,0,0,.07.16,1,1,0,0,1,.1.29,1.21,1.21,0,0,1,0,.29.4.4,0,0,0,0,.19,1.12,1.12,0,0,0,.08.18.83.83,0,0,1,.1.28,1.09,1.09,0,0,1,0,.26l.05.21c0,.13,0,.19,0,.27s0,.1,0,.21a.51.51,0,0,0,.26.28.55.55,0,0,0,.4.09,1.6,1.6,0,0,0,.32-.08l.24-.05.1,0,.22,0a1,1,0,0,0,.26,0,1.54,1.54,0,0,0,.37-.14.52.52,0,0,0,.13-.06,1.56,1.56,0,0,0,.46-.25,2,2,0,0,0,.38-.33,3.26,3.26,0,0,0,.34-.4,1.7,1.7,0,0,0,.18-.46l0-.1a2.44,2.44,0,0,0,.09-.37,1.72,1.72,0,0,0,0-.37l0-.12a1.91,1.91,0,0,0-.14-.46A1.44,1.44,0,0,0,943.36,460.27Z" transform="translate(-880.14 -455.06)"/><path class="cls-1" d="M959.07,464.16l.21.08a1.74,1.74,0,0,0,.36.13,2.08,2.08,0,0,0,.93-.06l.1,0a1.52,1.52,0,0,0,.44-.14,2.08,2.08,0,0,0,.42-.26,4,4,0,0,0,.35-.36,2.28,2.28,0,0,0,.28-.39c.05-.11.08-.27.13-.43v0a2.05,2.05,0,0,0,.06-.46,1.16,1.16,0,0,1,0-.29c0-.05,0-.11,0-.24s0-.17,0-.23,0-.13,0-.27v-.8a.56.56,0,0,0,0-.24v-.52a1,1,0,0,0,0-.21,1.8,1.8,0,0,1,0-.3,1.16,1.16,0,0,1,0-.28v-.22a1,1,0,0,1,0-.31c0-.05,0-.11,0-.22s0-.17,0-.24,0-.14,0-.27,0-.2,0-.28V456a.87.87,0,0,1,.32-.67,1.09,1.09,0,0,1,.76-.3,1.15,1.15,0,0,1,.78.28.9.9,0,0,1,.34.67,2,2,0,0,1,0,.28v.48c0,.06,0,.14,0,.27a1.22,1.22,0,0,0,0,.22,1.19,1.19,0,0,1,0,.3v.51a1.75,1.75,0,0,1,0,.29c0,.05,0,.12,0,.23a.87.87,0,0,1,0,.27v.24a1,1,0,0,0,0,.22c0,.06,0,.15,0,.3a1.19,1.19,0,0,1,0,.31.59.59,0,0,0,0,.2v1.56a.5.5,0,0,0,0,.19,1.17,1.17,0,0,1,0,.32,2,2,0,0,1,0,.36,1.24,1.24,0,0,0,0,.16v.11a2.7,2.7,0,0,1-.07.41,3.8,3.8,0,0,1-.2.51,5.33,5.33,0,0,1-.24.48c-.1.16-.22.32-.32.45a2.16,2.16,0,0,1-.27.25.75.75,0,0,0-.13.11l-.11.13a2.4,2.4,0,0,1-.27.28,3.89,3.89,0,0,1-.46.29l-.05,0a2.73,2.73,0,0,1-.45.24,2.61,2.61,0,0,1-.36.08l-.18,0-.17.07a1.4,1.4,0,0,1-.36.11h-.73l-.39,0a1.57,1.57,0,0,1-.4-.08.42.42,0,0,1-.13,0l-.17,0c-.12,0-.26,0-.39-.09a2.75,2.75,0,0,1-.51-.21,2.49,2.49,0,0,1-.32-.2l-.14-.1-.16-.09a.93.93,0,0,1-.31-.19,3.3,3.3,0,0,1-.4-.37,3.24,3.24,0,0,1-.24-.31.62.62,0,0,0-.08-.12l-.11-.14a1.61,1.61,0,0,1-.21-.3,2.19,2.19,0,0,1-.23-.49,1.82,1.82,0,0,1-.08-.36.67.67,0,0,0,0-.18l0-.11a2.79,2.79,0,0,1-.07-.4.9.9,0,0,1,.26-.72,1.08,1.08,0,0,1,.74-.31,1,1,0,0,1,.76.22.94.94,0,0,1,.36.66,1.35,1.35,0,0,0,.09.36l0,.09a2.67,2.67,0,0,0,.18.44,4.5,4.5,0,0,0,.3.38l.07.07a2.27,2.27,0,0,0,.28.26A1.92,1.92,0,0,0,959.07,464.16Z" transform="translate(-880.14 -455.06)"/><path class="cls-1" d="M968.83,465.71a.88.88,0,0,1-.38.43,1.07,1.07,0,0,1-.57.2.61.61,0,0,1-.28-.1s-.05,0-.07,0a.89.89,0,0,1-.54-.5.85.85,0,0,1-.06-.75,1.2,1.2,0,0,1,.12-.27,1.43,1.43,0,0,0,.11-.22,2,2,0,0,1,.12-.25.74.74,0,0,0,.11-.22l.21-.48a1.32,1.32,0,0,1,.13-.25l.11-.22a.49.49,0,0,0,.06-.19,1.62,1.62,0,0,1,.09-.32,1.14,1.14,0,0,1,.17-.28,1,1,0,0,0,.11-.18c0-.1.07-.16.09-.22a1.61,1.61,0,0,1,.1-.27,2.65,2.65,0,0,1,.15-.25s0-.11.11-.22.12-.29.21-.48a1.45,1.45,0,0,0,.11-.23,2.63,2.63,0,0,1,.12-.24.63.63,0,0,0,.06-.2.93.93,0,0,1,.1-.3,1,1,0,0,1,.15-.26l.12-.2c.06-.14.1-.21.13-.27l.12-.21a1.59,1.59,0,0,0,.08-.21c0-.07,0-.15.1-.28l.12-.23c0-.05,0-.13.1-.25a1.76,1.76,0,0,0,.12-.23,1.47,1.47,0,0,1,.11-.25,2.25,2.25,0,0,1,.14-.25,2,2,0,0,0,.12-.22.89.89,0,0,1,.17-.26l.12-.2c0-.09.08-.16.09-.2a.82.82,0,0,1,.06-.2v0l.05-.09.06-.08a.2.2,0,0,1,.15-.11s0,0,0,0a.28.28,0,0,1,.12-.16l.09-.06a.33.33,0,0,1,.15,0s0,0,0,0l.11,0a.33.33,0,0,1,.22,0h.15a.32.32,0,0,1,.2,0s.07,0,.11,0l.09,0,.14.06,0,0,0,0a.38.38,0,0,1,.11.12l.05,0s0,.05.07.07l.05.08a.43.43,0,0,1,0,.05.23.23,0,0,1,.1.12l0,.06,0,0c0,.09.07.15.08.19s0,.14.09.27.07.17.09.22.06.14.11.27a2,2,0,0,1,.09.29.63.63,0,0,0,.05.23,1,1,0,0,0,.09.2,2.36,2.36,0,0,1,.12.28c.05.14.05.22.07.27s0,.13.07.25.08.2.09.26a1.37,1.37,0,0,0,.07.24.77.77,0,0,0,.09.2,1.36,1.36,0,0,1,.11.29l.09.26c0,.06,0,.13.08.24a2.22,2.22,0,0,1,.08.28s0,.12.07.23,0,.21.07.26l.08.25.08.28a1.64,1.64,0,0,0,.07.23.93.93,0,0,0,.08.21c0,.11.07.17.11.28a2,2,0,0,1,.06.26c0,.07.05.12.09.25s0,.22.07.28,0,.11,0,.23a1.6,1.6,0,0,1,.07.28s0,.11.07.23a1.75,1.75,0,0,1,.07.26c0,.05,0,.13.06.24a1,1,0,0,0,.09.22,2.44,2.44,0,0,1,.1.28,1.06,1.06,0,0,1,.07.3,1.22,1.22,0,0,0,0,.22c0,.1.07.15.08.2a.81.81,0,0,1,.12.29,1,1,0,0,1-.73,1.21,1,1,0,0,1-.37,0,1,1,0,0,1-.55-.26.89.89,0,0,1-.32-.48c0-.1-.06-.13-.07-.18a1.12,1.12,0,0,1-.11-.26,2.45,2.45,0,0,1-.06-.26,1.31,1.31,0,0,0,0-.22c0-.08,0-.16-.07-.21s0-.12-.08-.23a1.65,1.65,0,0,0-.07-.21,1.86,1.86,0,0,1-.08-.23l-.08-.23c0-.05,0-.12-.07-.23a.76.76,0,0,0-.29-.39,1.13,1.13,0,0,0-.49-.2l-.3,0a.62.62,0,0,0-.24-.05h-.26l-.29,0-.29,0-.26,0a1.15,1.15,0,0,0-.25,0h-.3a.93.93,0,0,0-.5.14,1,1,0,0,0-.38.33l-.09.22c0,.06-.05.13-.1.22a.5.5,0,0,0-.06.17c0,.06,0,.15-.09.28a2,2,0,0,1-.13.24.57.57,0,0,0-.1.18,2.26,2.26,0,0,1-.11.22,1.43,1.43,0,0,1-.09.2c-.06.12-.08.19-.11.24A2.19,2.19,0,0,0,968.83,465.71Zm3.92-4.82a1.26,1.26,0,0,0-.07-.16,1.76,1.76,0,0,1-.14-.28,1.42,1.42,0,0,1-.07-.25l-.06-.21c0-.11,0-.18-.07-.24a1,1,0,0,0-.07-.21l-.08-.22a.81.81,0,0,1-.09-.22.23.23,0,0,0-.05-.1l0,.07a1.2,1.2,0,0,0-.1.22s-.06.11-.1.22a1.43,1.43,0,0,0-.12.21,2.22,2.22,0,0,0-.11.22,1.78,1.78,0,0,1-.11.21,1,1,0,0,0-.12.2.5.5,0,0,0-.07.19,1.3,1.3,0,0,1-.1.26c-.07.14-.06.22,0,.27a.36.36,0,0,0,.27.13h.23l.28,0h.5a.25.25,0,0,0,.24-.09C972.78,461,972.78,460.94,972.75,460.89Z" transform="translate(-880.14 -455.06)"/><path class="cls-1" d="M980.81,458.76a.44.44,0,0,0,.13-.14,3.13,3.13,0,0,1,.26-.25c.16-.12.24-.18.41-.29l.07,0a1.54,1.54,0,0,1,.34-.17l.18-.09a.86.86,0,0,0,.16-.1,1.56,1.56,0,0,1,.34-.18l.12-.06.43-.15a2,2,0,0,1,.4-.05h.23l.59-.1.21,0a2.12,2.12,0,0,1,.4-.06,3,3,0,0,1,.4.06l.22,0,.18,0a3.29,3.29,0,0,1,.82.15,1.07,1.07,0,0,0,.19.07l.21.06a1.62,1.62,0,0,1,.38.09l.19.07a2.5,2.5,0,0,1,.38.15,1.82,1.82,0,0,1,.34.22.65.65,0,0,0,.16.13,5.13,5.13,0,0,1,.49.33,5.32,5.32,0,0,1,.46.37,1,1,0,0,0,.11.1,2.2,2.2,0,0,1,.31.3l.37.44a.9.9,0,0,1,.22.73.92.92,0,0,1-.5.59,1.22,1.22,0,0,1-.82.11,1.09,1.09,0,0,1-.67-.44l-.19-.16-.18-.17a4.26,4.26,0,0,0-.38-.32l-.06,0-.34-.24-.4-.21h-.06l-.23-.13a1.2,1.2,0,0,0-.21-.12,3.46,3.46,0,0,0-.52-.11,1.87,1.87,0,0,0-.34,0h-.22a2.79,2.79,0,0,0-.5,0h-.33a2.33,2.33,0,0,0-.3,0,3.2,3.2,0,0,0-.54.15,1.35,1.35,0,0,0-.26.15l-.2.11-.08,0a2.26,2.26,0,0,0-.38.24c-.14.11-.29.21-.41.32a2.14,2.14,0,0,0-.19.26l-.11.16a2.2,2.2,0,0,0-.27.43,2.32,2.32,0,0,0-.17.47,2.12,2.12,0,0,0-.11.48c0,.06,0,.14,0,.21a1.47,1.47,0,0,0,0,.27,2.92,2.92,0,0,0,0,.51,2.11,2.11,0,0,0,.1.3c0,.07,0,.12.06.17a1,1,0,0,1,.05.22c0,.1.07.2.1.27a1.19,1.19,0,0,0,.16.23,2.43,2.43,0,0,1,.14.2l0,.06c.09.12.19.25.28.35a4,4,0,0,0,.35.36,4.25,4.25,0,0,0,.43.31.76.76,0,0,0,.16.11,1,1,0,0,0,.3.18,3.24,3.24,0,0,0,.45.18h0a3,3,0,0,0,.51.12l.07,0,.42.06a1.55,1.55,0,0,0,.3,0l.19,0a2.28,2.28,0,0,0,.48,0,3.72,3.72,0,0,0,.48-.11l.07,0a2.55,2.55,0,0,0,.39-.13,1.45,1.45,0,0,0,.31-.18l.1-.06.15-.08.27-.15a1,1,0,0,1,.76-.26,1.14,1.14,0,0,1,.73.36,1,1,0,0,1-.11,1.41,2.36,2.36,0,0,1-.32.2l-.18.09a3.77,3.77,0,0,1-.5.28l-.18.1a3.27,3.27,0,0,1-.33.18c-.19.07-.39.12-.55.17s-.38.11-.57.14l-.47.06-.11,0-.21,0a2.22,2.22,0,0,1-.38,0,5.47,5.47,0,0,1-.59,0c-.18,0-.38,0-.58-.08a1.6,1.6,0,0,1-.35-.11l-.18-.06a1.56,1.56,0,0,1-.16-.05,1.46,1.46,0,0,1-.39-.12h0l-.49-.2a5.46,5.46,0,0,1-.48-.27l-.39-.26-.07-.06a3.79,3.79,0,0,1-.44-.34l-.15-.12a2.47,2.47,0,0,1-.29-.24,1.79,1.79,0,0,1-.22-.28.71.71,0,0,0-.11-.17c-.11-.16-.23-.29-.33-.44a1.63,1.63,0,0,0-.11-.17,1.56,1.56,0,0,1-.2-.3c-.08-.15-.15-.3-.23-.49s-.11-.31-.19-.51a2.09,2.09,0,0,1,0-.34l0-.2,0-.16a2.09,2.09,0,0,1-.08-.36.56.56,0,0,0,0-.18,2,2,0,0,1,0-.36l.05-.39,0-.14a1.54,1.54,0,0,1,.08-.34,1.39,1.39,0,0,0,.06-.19.71.71,0,0,0,0-.17,1.87,1.87,0,0,1,.08-.34c.06-.13.11-.26.18-.38l.05-.12.21-.34.08-.11.08-.17c.07-.09.12-.19.2-.29a1.79,1.79,0,0,1,.28-.27Z" transform="translate(-880.14 -455.06)"/><path class="cls-1" d="M993.31,469.5a.86.86,0,0,1-.47.33,1.06,1.06,0,0,1-.61.06.67.67,0,0,1-.25-.16.1.1,0,0,1-.06-.05.93.93,0,0,1-.41-.61.88.88,0,0,1,.1-.75l.18-.23a1.26,1.26,0,0,0,.16-.19,1.6,1.6,0,0,1,.18-.21.83.83,0,0,0,.15-.19l.33-.43a1.08,1.08,0,0,1,.18-.21s.08-.1.15-.19a.54.54,0,0,0,.1-.17,1.39,1.39,0,0,1,.17-.29,1,1,0,0,1,.22-.23.8.8,0,0,0,.15-.16l.14-.19a1.4,1.4,0,0,1,.16-.24l.2-.21.16-.19.31-.42a.85.85,0,0,0,.17-.2,1.2,1.2,0,0,1,.17-.2.7.7,0,0,0,.1-.19,1,1,0,0,1,.17-.26,1.27,1.27,0,0,1,.21-.23l.16-.17a1.18,1.18,0,0,1,.19-.22l.16-.19.13-.18a2.89,2.89,0,0,1,.16-.25l.17-.2s.07-.11.16-.22l.17-.19a1.22,1.22,0,0,1,.15-.22,2.18,2.18,0,0,1,.2-.21,1.12,1.12,0,0,0,.16-.19.82.82,0,0,1,.24-.21l.16-.17a1.76,1.76,0,0,0,.13-.18,1.08,1.08,0,0,1,.11-.18h0l.07-.08a.5.5,0,0,1,.25-.14s0,0,0,0,.07-.1.16-.12l.1,0h.16s0,0,0,0l.12,0a.38.38,0,0,1,.21.08h0a.18.18,0,0,1,.1,0s0,0,0,0a.39.39,0,0,1,.2,0l.1.07.08.05.13.09v.05s0,0,0,0a.26.26,0,0,1,.07.14l0,.05a.25.25,0,0,0,0,.08l0,.09s0,0,0,.05a.27.27,0,0,1,.07.14l0,.07h0c0,.1,0,.16,0,.21s0,.14,0,.28a1.94,1.94,0,0,0,0,.24c0,.06,0,.15,0,.28a1.29,1.29,0,0,1,0,.31.84.84,0,0,0,0,.23.71.71,0,0,0,0,.21,2.84,2.84,0,0,0,.06.31v.28a1.7,1.7,0,0,1,0,.25c0,.13,0,.22,0,.28a2.45,2.45,0,0,0,0,.25c0,.1,0,.16,0,.22a1.09,1.09,0,0,1,.06.3c0,.13,0,.22,0,.28s0,.14,0,.25a1.85,1.85,0,0,0,0,.29c0,.05,0,.12,0,.24s0,.21,0,.27,0,.14,0,.26,0,.18,0,.29,0,.13,0,.24,0,.17,0,.23l0,.3a2.31,2.31,0,0,1,0,.27,2.36,2.36,0,0,1,0,.26c0,.13,0,.22,0,.29a1.29,1.29,0,0,0,0,.23,1.68,1.68,0,0,1,0,.29,1.09,1.09,0,0,0,0,.24c0,.13,0,.21,0,.27s0,.14,0,.25a.67.67,0,0,0,0,.23,2.78,2.78,0,0,1,0,.3,1,1,0,0,1,0,.31.65.65,0,0,0,0,.22c0,.1,0,.17,0,.22a.86.86,0,0,1,.06.3,1,1,0,0,1-.28.71,1.05,1.05,0,0,1-.72.31,1.43,1.43,0,0,1-.37-.06,1.18,1.18,0,0,1-.48-.38,1,1,0,0,1-.21-.54c0-.1,0-.14,0-.19a1,1,0,0,1-.05-.29c0-.13,0-.22,0-.27a.72.72,0,0,0,0-.21,2.11,2.11,0,0,1,0-.23.93.93,0,0,1,0-.24c0-.11,0-.18,0-.22a1.09,1.09,0,0,1,0-.24c0-.1,0-.15,0-.25s0-.12,0-.24a.79.79,0,0,0-.2-.44,1,1,0,0,0-.44-.31l-.29-.1a1.1,1.1,0,0,0-.22-.11l-.25-.06-.29-.08-.28-.09-.25-.07-.24-.07-.29-.07a.89.89,0,0,0-.53,0,.85.85,0,0,0-.44.23l-.15.19c0,.05-.08.12-.14.19a.79.79,0,0,0-.1.16,1.55,1.55,0,0,1-.16.25,1,1,0,0,1-.18.2.86.86,0,0,0-.13.16l-.16.18-.13.18a2.19,2.19,0,0,0-.16.2A1.07,1.07,0,0,0,993.31,469.5Zm4.94-3.8a.84.84,0,0,0,0-.18,1.51,1.51,0,0,1-.08-.3c0-.12,0-.19,0-.26v-.22a1.15,1.15,0,0,1,0-.25c0-.05,0-.12,0-.22l0-.23a.66.66,0,0,1,0-.24c0-.05,0-.07,0-.11l-.06.07a1.49,1.49,0,0,0-.15.19s-.08.09-.14.18l-.17.18-.15.19a1,1,0,0,1-.17.18l-.16.17a.39.39,0,0,0-.1.17,2.56,2.56,0,0,1-.16.23c-.1.12-.12.2-.1.26a.4.4,0,0,0,.24.18.67.67,0,0,0,.23.05l.27.09a.93.93,0,0,0,.24.05l.25.08a.25.25,0,0,0,.25,0C998.25,465.81,998.27,465.75,998.25,465.7Z" transform="translate(-880.14 -455.06)"/><path class="cls-1" d="M1014.86,474a.49.49,0,0,0-.1.16l-.1.2a1.57,1.57,0,0,1-.1.25,1.27,1.27,0,0,0-.09.2,1.66,1.66,0,0,1-.11.27,1.13,1.13,0,0,1-.17.25,1.3,1.3,0,0,0-.1.18l-.12.22-.11.23c-.05.1-.06.17-.09.22l-.12.24c0,.1-.07.17-.09.21l-.12.24a.93.93,0,0,1-.59.49,1.16,1.16,0,0,1-.8-.06,1.15,1.15,0,0,1-.57-.6,1,1,0,0,1,0-.77,1.17,1.17,0,0,1,.17-.28.52.52,0,0,0,.11-.15l.22-.46a1.73,1.73,0,0,0,.07-.19,1.47,1.47,0,0,1,.11-.31l.22-.45.12-.26a.52.52,0,0,0,.11-.19.7.7,0,0,0,.09-.23l.12-.26c0-.09.06-.16.09-.22l.12-.24a1.29,1.29,0,0,1,.14-.27.61.61,0,0,0,.11-.17,2.25,2.25,0,0,1,.14-.25c0-.06.06-.1.11-.21a.38.38,0,0,0,.05-.19,1.68,1.68,0,0,1,.11-.3,2,2,0,0,1,.14-.25,2,2,0,0,0,.11-.19,1.59,1.59,0,0,0,.08-.21.71.71,0,0,1,.07-.18l-.21.06a.84.84,0,0,0-.23.1l-.28.12-.25.11-.25.11-.26.14-.21.11a2.79,2.79,0,0,0-.29.15l-.29.12a1,1,0,0,0-.23.09,2,2,0,0,0-.26.13l-.24.11-.27.12-.25.12a1.94,1.94,0,0,0-.24.11l-.25.13a1.14,1.14,0,0,1-1,.06,1.17,1.17,0,0,1-.6-.73,2.18,2.18,0,0,0-.08-.24,2.63,2.63,0,0,1-.11-.29l-.08-.3c0-.05,0-.13-.07-.25a1.67,1.67,0,0,1-.07-.29,1.42,1.42,0,0,0-.07-.25l-.08-.25-.1-.29c0-.1-.06-.17-.07-.23a1,1,0,0,1-.12-.29c-.05-.16-.06-.23-.08-.31a1.6,1.6,0,0,0-.06-.24.6.6,0,0,0-.09-.21,1.1,1.1,0,0,1-.14-.32,1.51,1.51,0,0,1-.07-.31,2,2,0,0,0-.06-.23s0,0,0,0v0a.49.49,0,0,0-.06.2,1.11,1.11,0,0,1-.08.3.85.85,0,0,1-.15.26,1.16,1.16,0,0,0-.09.19l-.09.22a.84.84,0,0,1-.09.27,1.07,1.07,0,0,1-.12.26,1.78,1.78,0,0,0-.1.2.63.63,0,0,0,0,.2,1.23,1.23,0,0,1-.08.3,1.16,1.16,0,0,1-.14.26l-.09.21c0,.12-.09.19-.11.25a1.21,1.21,0,0,0-.11.21,2.35,2.35,0,0,1-.07.23l-.1.25-.1.25-.09.24a1.31,1.31,0,0,1-.12.24l-.09.22-.09.24-.09.23-.1.25-.09.22a.91.91,0,0,1-.54.53,1,1,0,0,1-1.34-.52,1,1,0,0,1-.06-.76c0-.13.11-.2.14-.27a.93.93,0,0,0,.08-.17.89.89,0,0,0,.07-.23,1.34,1.34,0,0,1,.08-.26.92.92,0,0,1,.11-.24l.08-.23a.75.75,0,0,0,.07-.22l.1-.26a.7.7,0,0,0,.06-.23l.1-.25a1.7,1.7,0,0,1,.12-.26s0-.1.09-.2a1.06,1.06,0,0,0,.06-.22,1.54,1.54,0,0,1,.07-.28,1.69,1.69,0,0,1,.11-.23l.09-.23.08-.24a1.47,1.47,0,0,0,.11-.22c0-.13.09-.21.11-.26a1.21,1.21,0,0,0,.1-.2.85.85,0,0,0,.06-.23l.1-.25.09-.24c0-.06,0-.13.07-.24s.09-.19.11-.25a1.2,1.2,0,0,0,.1-.22.4.4,0,0,0,0-.19.91.91,0,0,1,.08-.31l.09-.25a.56.56,0,0,0,.1-.22c0-.12.09-.19.11-.24a1.21,1.21,0,0,0,.1-.2,1.55,1.55,0,0,0,.06-.22,1.6,1.6,0,0,1,.08-.27l.1-.26a.83.83,0,0,0,.1-.21.89.89,0,0,1,.36-.49,1.33,1.33,0,0,1,.69-.1,1.25,1.25,0,0,1,.67.25,1.17,1.17,0,0,1,.37.53.72.72,0,0,0,.09.21,1.38,1.38,0,0,1,.13.29,2.83,2.83,0,0,1,.08.29l.07.23.09.21a1.83,1.83,0,0,1,.12.29,1.72,1.72,0,0,1,.07.32.46.46,0,0,0,0,.2,2.18,2.18,0,0,0,.08.24l.09.26a1.16,1.16,0,0,0,.09.21,2.63,2.63,0,0,1,.11.29l.08.24c0,.06.06.14.11.27s.05.19.07.25a1.42,1.42,0,0,0,.07.25c0,.12.07.21.08.27a2.08,2.08,0,0,0,0,.24l.09.26a1.75,1.75,0,0,0,.07.26,2,2,0,0,1,.06.26,1.73,1.73,0,0,0,0,.24c0,.05.06.13.24.2a.28.28,0,0,0,.28,0,1.47,1.47,0,0,0,.23-.12,1.7,1.7,0,0,1,.24-.14,1.41,1.41,0,0,1,.32-.1l.19-.07.22-.11a2.2,2.2,0,0,1,.24-.13.52.52,0,0,0,.19-.11,1.63,1.63,0,0,1,.28-.17,1.35,1.35,0,0,1,.32-.1.54.54,0,0,0,.19,0,1.21,1.21,0,0,0,.21-.11l.27-.14.23-.11s.11-.07.24-.13a1.93,1.93,0,0,1,.29-.11l.22-.07.22-.11a1,1,0,0,1,.25-.14,1.26,1.26,0,0,0,.25-.11l.24-.1.26-.11.25-.09a1.07,1.07,0,0,1,.65-.1,1.4,1.4,0,0,1,.63.34,1.3,1.3,0,0,1,.39.56.9.9,0,0,1-.07.63c0,.11-.06.18-.09.24l-.12.22a1,1,0,0,1-.17.26.55.55,0,0,0-.12.16.83.83,0,0,0-.08.21,1.62,1.62,0,0,1-.12.26,2,2,0,0,1-.14.25,1.67,1.67,0,0,0-.12.19,1.2,1.2,0,0,0-.07.19,2,2,0,0,1-.1.29,1,1,0,0,1-.17.25.75.75,0,0,0-.1.17.65.65,0,0,0-.09.2,1.16,1.16,0,0,1-.11.27l-.12.24-.11.21c-.05.11-.1.16-.13.23l-.11.22a1,1,0,0,0-.08.2,1.61,1.61,0,0,1-.12.27l-.1.21a1.34,1.34,0,0,1-.11.25A1.08,1.08,0,0,1,1014.86,474Z" transform="translate(-880.14 -455.06)"/><path class="cls-1" d="M1028.68,480l-.21.32-.09.13a3.68,3.68,0,0,1-.31.38l0,0a.53.53,0,0,0-.11.14,2.83,2.83,0,0,1-.23.28,1.56,1.56,0,0,1-.3.2,1.12,1.12,0,0,0-.15.11c-.16.1-.33.19-.46.28l-.14.08a2.49,2.49,0,0,1-.32.2.54.54,0,0,0-.18.1,2.23,2.23,0,0,1-.31.15l-.42.12-.24.05a3.34,3.34,0,0,1-.43.1,1.64,1.64,0,0,1-.38,0h-.2a5.47,5.47,0,0,1-.57,0h-.09a4,4,0,0,1-.48,0,1.33,1.33,0,0,0-.2,0,2.46,2.46,0,0,1-.37,0,1.53,1.53,0,0,1-.36-.11l-.19-.09-.2,0-.35-.11c-.17-.07-.37-.14-.55-.23l-.11-.06a1.56,1.56,0,0,1-.19-.14l-.34-.21a1.17,1.17,0,0,1-.34-.2l-.12-.08a2.78,2.78,0,0,1-.34-.26c-.13-.12-.27-.23-.43-.4s-.29-.3-.39-.43-.14-.23-.23-.33a.85.85,0,0,0-.09-.14l-.11-.16a1.51,1.51,0,0,1-.22-.32l-.19-.38,0-.13a3.33,3.33,0,0,1-.21-.52,1.9,1.9,0,0,1-.08-.35.69.69,0,0,0,0-.2,1.16,1.16,0,0,1,0-.18,1.27,1.27,0,0,1-.09-.36,3.33,3.33,0,0,1-.07-.54c0-.14,0-.26,0-.39l0-.15a2.25,2.25,0,0,1,.06-.4v-.14c0-.21.08-.37.12-.53l0-.08c0-.14.08-.28.13-.43l.06-.15a3.45,3.45,0,0,1,.14-.34,3,3,0,0,1,.21-.32l.09-.13,0-.07a3.07,3.07,0,0,1,.27-.36l.12-.13a2.92,2.92,0,0,1,.23-.29l.43-.33.47-.31a1.92,1.92,0,0,1,.33-.14.75.75,0,0,0,.18-.07.39.39,0,0,0,.18-.1,2.67,2.67,0,0,1,.34-.14,1.72,1.72,0,0,1,.37-.07.75.75,0,0,0,.22,0l.17,0a2.24,2.24,0,0,1,.39-.08,5.28,5.28,0,0,1,.59,0c.15,0,.29,0,.41,0l.21,0h.22a1.64,1.64,0,0,1,.78.16l.22.07.21.05a1.88,1.88,0,0,1,.39.12,3.52,3.52,0,0,1,.4.18l.17.08a1.86,1.86,0,0,1,.2.1,5.94,5.94,0,0,1,.92.54,2.61,2.61,0,0,1,.3.27l.15.15c.07,0,.12.1.17.13s.22.19.31.29l.07.06c.12.13.24.26.37.42a2,2,0,0,1,.22.32l.11.18a5.64,5.64,0,0,1,.31.53,4.84,4.84,0,0,1,.21.47l0,.07a3.1,3.1,0,0,1,.21.55.76.76,0,0,0,.06.18c0,.12.08.26.11.39a1.16,1.16,0,0,0,0,.18c0,.13.06.25.07.39a2,2,0,0,1,0,.36,1.91,1.91,0,0,1,0,.2,3.12,3.12,0,0,1,0,.54c0,.21-.06.38-.09.53l0,0c0,.16-.09.32-.16.49l0,.17A1.54,1.54,0,0,1,1028.68,480Zm-1.91-1.23a1.6,1.6,0,0,0,.11-.33l0-.15a3.18,3.18,0,0,0,.06-.43v-.07a4.67,4.67,0,0,0,0-.53,2.88,2.88,0,0,0-.08-.52l0-.13a2.48,2.48,0,0,0-.1-.39,3.12,3.12,0,0,0-.16-.31.87.87,0,0,1-.11-.18l0-.08c-.09-.14-.16-.27-.26-.4a4.3,4.3,0,0,0-.37-.43c-.07-.06-.12-.13-.17-.18l-.24-.24-.14-.11-.16-.09c-.25-.13-.49-.28-.71-.37l-.12-.06a3.32,3.32,0,0,0-.43-.16l-.09,0a3.15,3.15,0,0,0-.47-.11c-.17,0-.36-.05-.57-.06a5.54,5.54,0,0,0-.56.05,3,3,0,0,0-.36.08l-.15,0-.13,0a1.7,1.7,0,0,0-.38.12,3.18,3.18,0,0,0-.44.26,2.47,2.47,0,0,0-.27.21.41.41,0,0,1-.11.12,3,3,0,0,0-.35.37,2.67,2.67,0,0,0-.28.41l-.1.18a1,1,0,0,0-.14.25,1.36,1.36,0,0,0-.06.29l0,.2a.94.94,0,0,1-.06.24c0,.09-.05.18-.06.26a2.38,2.38,0,0,0,0,.36.81.81,0,0,1,0,.15c0,.16.06.33.1.51a.35.35,0,0,1,0,.17,1.87,1.87,0,0,0,.1.33,1.08,1.08,0,0,0,.16.26l.14.21a2.4,2.4,0,0,1,.11.23,1.26,1.26,0,0,0,.14.26,1.24,1.24,0,0,0,.23.23,1.07,1.07,0,0,0,.16.14l.09.12c.11.1.19.2.29.28l.27.16a3.61,3.61,0,0,1,.39.22,1.46,1.46,0,0,0,.29.17,1.86,1.86,0,0,0,.31.1.73.73,0,0,1,.21.06l.1,0,.44.12a1.87,1.87,0,0,0,.48,0l.06,0,.23,0,.31,0c.21,0,.36-.05.51-.09s.35-.11.51-.16a1.2,1.2,0,0,0,.24-.15l.19-.12.22-.11a1,1,0,0,0,.25-.12l.22-.23a1.1,1.1,0,0,1,.11-.14,2.2,2.2,0,0,0,.3-.39c0-.07.09-.12.12-.17A.68.68,0,0,0,1026.77,478.78Z" transform="translate(-880.14 -455.06)"/><path class="cls-1" d="M904.86,616.71l-.11.31-.35.33-.38.11-.35,0-.37.05h.27l-.34,0-.29,0h-2.11l-.29,0-.47,0-.3,0H899l-.22,0h-.59l-.44,0-.35-.15a.27.27,0,0,1-.22-.23l-.08-.28,0-.46.12-.21.26-.19.22-.09.84,0,.67,0,.25,0,.29,0,.24,0,.31,0,.23-.05h.53a1.47,1.47,0,0,0,.29.05l.25-.06.53.05h.25l.26,0,.3,0,.24-.05h.47l.7.11.24.17.2.4A.28.28,0,0,1,904.86,616.71Z" transform="translate(-880.14 -455.06)"/><path class="cls-1" d="M922.47,617.21a.87.87,0,0,0,0,.19v.22a1.86,1.86,0,0,1,0,.27.62.62,0,0,0,0,.22c0,.06,0,.14,0,.29a1.05,1.05,0,0,1,0,.3c0,.06,0,.11,0,.2v.51c0,.11,0,.18,0,.24v.27c0,.11,0,.17,0,.22v.27a.93.93,0,0,1-.29.7,1,1,0,0,1-.7.3,1,1,0,0,1-.71-.28,1.09,1.09,0,0,1-.29-.72,1.13,1.13,0,0,1,0-.32.61.61,0,0,0,0-.19v-.5c0-.11,0-.16,0-.21a1.91,1.91,0,0,1,0-.32v-.79a.62.62,0,0,0,0-.22.72.72,0,0,0,0-.24v-.29c0-.11,0-.17,0-.23v-.27a1.28,1.28,0,0,1,0-.31.48.48,0,0,0,0-.2c0-.15,0-.21,0-.29s0-.11,0-.24a1,1,0,0,0,0-.19,1,1,0,0,1,0-.31c0-.15,0-.23,0-.29a1.22,1.22,0,0,0,0-.44s0-.11,0-.19a.92.92,0,0,1-.14.14.84.84,0,0,0-.14.19c-.1.11-.13.16-.18.22l-.15.21c-.08.09-.11.16-.16.2a1.94,1.94,0,0,1-.16.24,1.29,1.29,0,0,0-.13.19l-.17.26c-.08.12-.15.17-.19.23a1.07,1.07,0,0,0-.16.18,2.16,2.16,0,0,0-.16.22,1.8,1.8,0,0,0-.16.21,2.27,2.27,0,0,0-.17.22.66.66,0,0,0-.16.21,1.05,1.05,0,0,0-.16.2l-.16.22a1,1,0,0,1-.76.43,1,1,0,0,1-.76-.43l-.16-.19a1.18,1.18,0,0,1-.19-.22,1.83,1.83,0,0,1-.18-.24,1.55,1.55,0,0,0-.14-.2,1.94,1.94,0,0,1-.16-.24,1.06,1.06,0,0,0-.14-.21,1,1,0,0,0-.16-.2l-.17-.23c-.07-.09-.12-.14-.15-.19a.9.9,0,0,1-.19-.22c-.09-.12-.12-.19-.17-.25a1.2,1.2,0,0,0-.13-.21.58.58,0,0,0-.14-.16.75.75,0,0,1-.22-.24,1.06,1.06,0,0,1-.16-.26l-.13-.2s0,0,0,0v0a.65.65,0,0,0,0,.21,1,1,0,0,1,0,.3,1.15,1.15,0,0,1,0,.3.53.53,0,0,0,0,.21v.23a2.11,2.11,0,0,1,0,.58s0,.11,0,.22a.49.49,0,0,0,0,.2,1.19,1.19,0,0,1,0,.31,1.15,1.15,0,0,1,0,.3v.22c0,.13,0,.21,0,.27s0,.11,0,.24,0,.17,0,.23v.8a1.94,1.94,0,0,1,0,.27v1.25a.92.92,0,0,1-.29.68,1,1,0,0,1-1.65-.68,1.87,1.87,0,0,1,0-.3c0-.05,0-.09,0-.19a.76.76,0,0,0,0-.24c0-.06,0-.14,0-.27a1.86,1.86,0,0,1,0-.27v-.24a1.35,1.35,0,0,0,0-.23v-.27a.72.72,0,0,0,0-.24v-.27a1.11,1.11,0,0,1,0-.29s0-.11,0-.22,0-.16,0-.22a.93.93,0,0,1,0-.29c0-.12,0-.19,0-.25v-.51c0-.06,0-.13,0-.24a2,2,0,0,1,0-.28c0-.07,0-.11,0-.22a.66.66,0,0,0,0-.24v-.53c0-.06,0-.12,0-.25s0-.21,0-.27,0-.11,0-.24a.75.75,0,0,0,0-.19,1.12,1.12,0,0,1,0-.32v-.27a1.23,1.23,0,0,0,0-.23.94.94,0,0,1,0-.27c0-.07,0-.11,0-.23s0-.17,0-.22a1,1,0,0,1,0-.28v-.27a.82.82,0,0,0,0-.24,1,1,0,0,1,.14-.59,1,1,0,0,1,.52-.33.92.92,0,0,1,.61,0,1.19,1.19,0,0,1,.46.37.46.46,0,0,0,.14.16,1.18,1.18,0,0,1,.19.22,1.4,1.4,0,0,1,.16.24l.13.19c.06.08.11.12.14.16a1.18,1.18,0,0,1,.19.22.92.92,0,0,1,.16.27.46.46,0,0,0,.09.17c.07.1.12.15.15.19a1.8,1.8,0,0,1,.16.21c.08.08.11.13.14.16a1.66,1.66,0,0,1,.19.22,1.08,1.08,0,0,1,.14.19,1.52,1.52,0,0,1,.18.21,1.07,1.07,0,0,1,.14.2,2.45,2.45,0,0,1,.14.21,1.45,1.45,0,0,1,.16.21,1.08,1.08,0,0,0,.13.2l.16.21a1.07,1.07,0,0,0,.14.2c.08.12.11.18.14.23a1.3,1.3,0,0,0,.13.19s.09.09.27.09a.25.25,0,0,0,.22-.11,1.06,1.06,0,0,0,.14-.21l.15-.22a1.13,1.13,0,0,1,.22-.22l.13-.14.14-.19a.88.88,0,0,1,.14-.23.43.43,0,0,0,.11-.17,2,2,0,0,1,.16-.27,1.1,1.1,0,0,1,.22-.22.53.53,0,0,0,.13-.13,1.64,1.64,0,0,0,.13-.19,1.94,1.94,0,0,1,.16-.24,1.17,1.17,0,0,1,.14-.19,1.42,1.42,0,0,1,.14-.22,1.66,1.66,0,0,1,.19-.22,1.4,1.4,0,0,0,.14-.16l.13-.19a1.38,1.38,0,0,1,.14-.24.83.83,0,0,0,.16-.21s.08-.09.15-.19a1.46,1.46,0,0,0,.15-.2l.16-.19a.91.91,0,0,1,.46-.38,1,1,0,0,1,.61,0,1,1,0,0,1,.5.33,1,1,0,0,1,.19.59c0,.13,0,.19,0,.25v.26a1.53,1.53,0,0,1,0,.3.56.56,0,0,0,0,.2c0,.12,0,.16,0,.23a1,1,0,0,1,0,.28,1.07,1.07,0,0,1,0,.29c0,.06,0,.11,0,.22s0,.16,0,.21a1.05,1.05,0,0,1,0,.3,1.15,1.15,0,0,1,0,.3.92.92,0,0,0,0,.19,1.28,1.28,0,0,0,0,.22,1.07,1.07,0,0,1,0,.29v.51c0,.12,0,.19,0,.26v.24a.69.69,0,0,0,0,.23c0,.07,0,.14,0,.28v.24a.91.91,0,0,1,0,.27A1.06,1.06,0,0,1,922.47,617.21Z" transform="translate(-880.14 -455.06)"/><path class="cls-1" d="M925.84,620.73a.85.85,0,0,1-.35.44,1,1,0,0,1-.54.23.61.61,0,0,1-.27-.1.09.09,0,0,1-.07,0A1.06,1.06,0,0,1,924,620a2.32,2.32,0,0,1,.11-.27s0-.11.1-.22a.87.87,0,0,1,.11-.25,1.38,1.38,0,0,0,.09-.23l.19-.49a2.42,2.42,0,0,1,.11-.25,1.08,1.08,0,0,0,.1-.23.67.67,0,0,0,0-.19.82.82,0,0,1,.08-.31.78.78,0,0,1,.14-.29.85.85,0,0,0,.09-.19,1.59,1.59,0,0,0,.08-.22l.08-.27c.07-.13.1-.21.13-.25a1.78,1.78,0,0,1,.1-.23l.17-.49a1.8,1.8,0,0,0,.1-.24,1.28,1.28,0,0,1,.09-.24c0-.09,0-.14.05-.2a.61.61,0,0,1,.08-.3,1.22,1.22,0,0,1,.12-.27l.1-.21a2.32,2.32,0,0,1,.11-.27l.1-.22c0-.1,0-.16.06-.21a2.22,2.22,0,0,1,.08-.28c0-.11.06-.18.09-.24l.08-.26.1-.23a1.16,1.16,0,0,1,.08-.26c.06-.12.08-.19.11-.25a1,1,0,0,0,.09-.22,1,1,0,0,1,.15-.27l.09-.21.07-.21a.58.58,0,0,1,0-.2v0l0-.09,0-.08a.21.21,0,0,1,.13-.13l0,0a.26.26,0,0,1,.09-.16.21.21,0,0,1,.08-.06.31.31,0,0,1,.13,0l0,0,.09,0a.23.23,0,0,1,.19,0h.1s0,0,0,0a.24.24,0,0,1,.18,0l.09,0,.08,0,.13,0v0h0a.44.44,0,0,1,.09.11l0,0,.06.06,0,.08a.43.43,0,0,1,0,0,.27.27,0,0,1,.1.11l0,.06v0c0,.09.06.14.08.19s0,.12.09.25.08.16.1.22.06.13.11.26a1.18,1.18,0,0,1,.09.28.49.49,0,0,0,.07.22.77.77,0,0,0,.09.2l.13.26c.05.15.06.21.08.28a1.86,1.86,0,0,1,.08.23c0,.13.08.19.09.26a1.61,1.61,0,0,0,.08.23.53.53,0,0,0,.1.2,1,1,0,0,1,.12.27l.1.25c0,.06,0,.13.09.24s.07.2.1.27a1.25,1.25,0,0,0,.08.22c0,.13.06.19.08.25s0,.13.09.24l.1.27a1,1,0,0,0,.08.22.72.72,0,0,0,.09.21l.13.27c.05.13.06.19.08.25a1.82,1.82,0,0,1,.09.24c0,.13.07.21.1.27s0,.11.06.22a2.51,2.51,0,0,1,.1.27,1,1,0,0,0,.08.22,1.81,1.81,0,0,0,.09.26,1.64,1.64,0,0,0,.08.24.73.73,0,0,0,.1.2,1,1,0,0,1,.12.27,1.65,1.65,0,0,1,.1.29.59.59,0,0,0,.05.22c0,.1.08.14.09.19a1.07,1.07,0,0,1,.14.27,1.05,1.05,0,0,1,0,.76.93.93,0,0,1-.54.53,1,1,0,0,1-.35.06,1,1,0,0,1-.54-.21.88.88,0,0,1-.34-.44,1.73,1.73,0,0,1-.08-.18.8.8,0,0,1-.13-.25c0-.13-.06-.21-.08-.25a1.43,1.43,0,0,0-.06-.21.8.8,0,0,1-.08-.21,1.72,1.72,0,0,1-.1-.22.88.88,0,0,0-.08-.2.91.91,0,0,1-.09-.23l-.1-.22s-.05-.11-.08-.22a.8.8,0,0,0-.3-.37,1,1,0,0,0-.46-.15l-.28,0a.71.71,0,0,0-.23,0h-1.25a.91.91,0,0,1-.27,0,1.06,1.06,0,0,0-.79.52,2.2,2.2,0,0,0-.08.23,1,1,0,0,0-.08.22.26.26,0,0,0,0,.17,2.83,2.83,0,0,1-.08.29,2,2,0,0,1-.11.24.59.59,0,0,0-.08.19l-.09.22-.08.21c0,.12-.08.17-.1.23A1.16,1.16,0,0,0,925.84,620.73Zm3.38-5-.08-.16a.88.88,0,0,1-.15-.27c0-.11-.06-.17-.08-.24l-.06-.2a2.16,2.16,0,0,1-.08-.24.83.83,0,0,0-.08-.21l-.08-.2a.91.91,0,0,1-.09-.23l0-.09,0,.08a.86.86,0,0,0-.08.22,1.59,1.59,0,0,0-.08.22l-.1.22c0,.07,0,.11-.08.23s-.07.15-.09.22,0,.11-.1.2a.68.68,0,0,0,0,.2c0,.06,0,.14-.08.26s0,.23,0,.27a.32.32,0,0,0,.26.12.5.5,0,0,0,.2,0h.26a.68.68,0,0,0,.22,0H929a.21.21,0,0,0,.2-.11C929.25,615.81,929.25,615.75,929.22,615.7Z" transform="translate(-880.14 -455.06)"/><path class="cls-1" d="M941.72,611.08a1,1,0,0,1-.14.73,1.45,1.45,0,0,0-.11.22l-.13.24-.13.24-.13.22c-.06.11-.07.16-.11.22l-.12.24c-.07.11-.1.18-.13.22a1,1,0,0,1-.13.24,1,1,0,0,0-.09.22l-.13.26c-.08.11-.11.17-.16.24l-.13.19a.74.74,0,0,1-.11.22l-.12.25a1.2,1.2,0,0,1-.18.24l-.12.19c-.07.11-.08.16-.12.22l-.12.23a.87.87,0,0,0-.1.2l-.13.27a.94.94,0,0,1-.14.24l-.12.22c-.07.11-.08.16-.12.22l-.12.23a1.76,1.76,0,0,0-.19.39l0,.26c0,.06,0,.12,0,.19a2,2,0,0,0-.06.41v.22a.69.69,0,0,1,0,.24.81.81,0,0,1,0,.27.81.81,0,0,0,0,.17v.21a1.63,1.63,0,0,1,0,.25v.45a1,1,0,0,1-.28.7,1,1,0,0,1-.7.27.92.92,0,0,1-.68-.29,1,1,0,0,1-.34-.68.76.76,0,0,1,0-.27,1,1,0,0,0,0-.18v-.46a1.09,1.09,0,0,0,0-.19.79.79,0,0,1,0-.25v-.46a2.7,2.7,0,0,0,0-.41,2.08,2.08,0,0,1,0-.23.65.65,0,0,0,0-.22,1.14,1.14,0,0,0-.16-.31l0-.07-.13-.2a1.21,1.21,0,0,1-.16-.24,1.8,1.8,0,0,1-.14-.26,1.52,1.52,0,0,0-.11-.2l-.13-.27a.5.5,0,0,0-.09-.21l-.13-.19a1.85,1.85,0,0,1-.16-.25,1.57,1.57,0,0,1-.13-.24l-.12-.22-.13-.26a1.07,1.07,0,0,0-.11-.2c-.06-.11-.1-.15-.13-.21a1.37,1.37,0,0,1-.16-.24.71.71,0,0,1-.12-.27c0-.05,0-.11-.11-.2a1.59,1.59,0,0,0-.11-.18l-.18-.25-.13-.24-.12-.22-.13-.27a1.25,1.25,0,0,0-.1-.21.5.5,0,0,0-.12-.17,1,1,0,0,1-.18-.26,1,1,0,0,1-.11-.76.91.91,0,0,1,.51-.54.81.81,0,0,1,.71-.09.87.87,0,0,1,.62.41,1,1,0,0,1,.13.27.65.65,0,0,0,.09.2,1.76,1.76,0,0,0,.13.2c0,.06.08.11.16.23l.13.27a.62.62,0,0,0,.08.21,1.35,1.35,0,0,0,.12.17c.05.07.1.13.18.26l.13.2.14.24a.76.76,0,0,1,.12.29,1.32,1.32,0,0,0,.08.19l.13.22.13.22.13.24.12.22.13.21a.79.79,0,0,1,.14.24l.13.22.13.22a.16.16,0,0,0,.15.1.15.15,0,0,0,.16-.1l.26-.46.16-.24a1.21,1.21,0,0,0,.11-.19l.08-.19a.79.79,0,0,1,.12-.3.62.62,0,0,0,.11-.22l.13-.22.14-.24.13-.21c.06-.11.08-.16.11-.22a2,2,0,0,0,.13-.24,1.73,1.73,0,0,1,.19-.25l.11-.16.13-.22c0-.07.06-.11.12-.24l.1-.19a2.55,2.55,0,0,1,.11-.27,1.08,1.08,0,0,0,.11-.21l.13-.25a.93.93,0,0,1,.62-.41,1,1,0,0,1,.73,0A1.12,1.12,0,0,1,941.72,611.08Z" transform="translate(-880.14 -455.06)"/><path class="cls-1" d="M951.6,621.24l-.76-.19-.3-.1-.51-.25-.25-.16-.24-.22-.19-.18-.21-.22-.27-.48-.14-.31,0-.27.11-.27.31-.22.28-.12.32,0,.35.08.28.21.19.3.16.16.43.39.6.18.46,0,.35,0,.32,0,.22-.13.62-.4a1.75,1.75,0,0,0,.16-.25l.14-.32a1.35,1.35,0,0,0,.08-.24v-.63l-.08-.22-.06-.22-.22-.37-.34-.3-.33-.18-.73-.09-.28-.08-.48,0-.35-.19-.13-.23,0-.22,0-.28,0-.32.16-.22.28-.14h.26l.39-.06.22-.07h.29l.33-.12.34-.21.27-.36.19-.32,0-.64-.09-.41-.35-.52-.52-.26-.45-.08-.7,0-.39.15s-.62.46-.62.48a2.11,2.11,0,0,0-.22.17l-.32.18-.27,0-.27-.13-.27-.16-.21-.35,0-.35.19-.33.45-.44.36-.29a2.22,2.22,0,0,0,.27-.19l.56-.24.28-.11h.32l.22-.06.3,0,.83.06.55.14.29.11.27.15.41.25.53.49.17.21.14.3.26.7.06.32,0,.28,0,.32-.08.28,0,.24-.1.3-.17.31-.13.23-.25.29-.29.3a.57.57,0,0,0,0,.13s0,.12.06.12.24.23.24.24l.13.19.25.3.46.75.1.3a2.89,2.89,0,0,0,0,.29l.08.28v.3l-.05.31v.23l0,.27-.17.51-.32.54-.3.4-.48.44-.2.13-.34.17-.49.18-.32,0-.46.14-.35,0-.24,0h-.28Z" transform="translate(-880.14 -455.06)"/><path class="cls-1" d="M961,621.35l-.3-.05-.78-.25-.32-.18-.22-.09-.24-.23-.22-.12-.24-.22-.2-.16-.21-.32-.14-.19-.14-.27-.19-.27-.1-.25-.06-.26-.1-.24-.06-.33v-.29l-.06-.25.05-.28-.06-.48,0-.3,0-.22v-2.39l.05-.28v-.24l0-.28.08-.29.14-.29.16-.46.13-.28.19-.27a2.13,2.13,0,0,0,.22-.21s.24-.27.26-.27l.27-.28.28-.19.19-.15.34-.11.28-.12.22-.08.43-.12.37-.07.31,0h.51l.3,0,.27.09.24,0,.29.1.27.11.47.3.24.13.24.22s.16.24.17.24l.18.14.2.27.24.46.16.21.11.35.1.55.06.24v.3l0,.27,0,.32,0,.27,0,.28,0,.26v.87l0,.27,0,.25,0,.3,0,.27,0,.32v.27l0,.24,0,.32-.21.55,0,.26-.19.31-.09.23-.15.25-.22.25-.19.18-.17.21-.46.38-.27.12-.21.16-.29.14-.3.07-.3.13-.51.06h-.31l-.26,0Zm.57-9.92-.47,0-.72.26-.22.12-.32.34-.33.38s-.11.2-.11.22l-.06.22-.08.24,0,.25-.06.26v.49l0,.24,0,.31,0,.48,0,.24,0,.51.07.23v.32l0,.29,0,.22,0,.29.08.46.33.84.3.33.17.16.64.33.22.08.22,0h.26l.47,0h.27l.8-.51.22-.14.25-.35.1-.23s.09-.24.09-.24l0-.24a2.34,2.34,0,0,0,.09-.24l0-.25v-.5l0-.25v-.3l0-.27,0-.49v-.26l0-.25,0-.25,0-.27,0-.24,0-.27-.07-.73,0-.27s-.29-.57-.3-.57l-.67-.67-.22-.08-.24-.13-.24-.06-.25-.09Z" transform="translate(-880.14 -455.06)"/><path class="cls-1" d="M967.31,623.36a.36.36,0,0,1-.24-.15l-.11-.27,0-.53.11-.33.07-.29.09-.25.13-.51s.11-.3.11-.32l0-.22.13-.32,0-.22.14-.32.2-.28.42-.21.35,0,.31,0,.35.14.18.24,0,.4-.1.24-.33,1-.13.47-.12.27a3.3,3.3,0,0,0-.11.34l-.16.41-.07.24-.19.22-.31.22-.45.11Z" transform="translate(-880.14 -455.06)"/><path class="cls-1" d="M982.67,621.09l-.41,0h-.79l-.26,0-.22,0-.25,0-.24,0h-1.59l-.29,0-.25,0-.28,0h-.51l-.3,0L977,621a.38.38,0,0,1-.22-.21l-.09-.25,0-.37v-.25l.12-.51.13-.27.17-.24.27-.2.26-.3L978,618a1.75,1.75,0,0,1,.2-.16l.19-.25.85-.86.21-.17.19-.14.24-.27.46-.47.31-.38.2-.19.15-.17.23-.21.16-.16s.41-.57.41-.57l.25-.62.05-.63-.24-.6a4.11,4.11,0,0,0-.29-.31l-.36-.22-.38-.09h-.25l-.26-.05a3.32,3.32,0,0,1-.44.06l-.38.18-.34.22-.52.81-.24.21a.28.28,0,0,1-.22.09l-.25,0h-.27l-.37-.16a.25.25,0,0,1-.17-.19l-.1-.2,0-.32.34-.79.17-.32a.81.81,0,0,0,.18-.19l.25-.21.19-.22.49-.3.31-.11.3-.07.23-.09.56-.1h.32l.28,0,.34.09.27.05.22.06.24,0,.35.17.27.1.23.14.23.21.19.14.55.62.26.55.09.58v.34l0,.26v.25l-.09.32,0,.24-.18.52-.43.73-.54.72-.17.2-.22.19-.19.16-.54.52-.18.23-.17.14-.18.17-.17.21a.83.83,0,0,0-.21.16l-.63.68-.27.22-.27.35s-.1.11-.08.15,0,.11,0,.11l.26,0,.22,0h.75l.5,0,.48,0,.32,0,.47,0h1l.25.08a.28.28,0,0,1,.24.18l.13.28v.68l-.27.42-.45.12-.2,0Z" transform="translate(-880.14 -455.06)"/><path class="cls-1" d="M988.91,621.35l-.3-.05-.78-.25-.32-.18-.22-.09-.24-.23-.22-.12-.24-.22-.21-.16-.2-.32-.14-.19-.15-.27-.19-.27-.09-.25-.07-.26-.09-.24-.07-.33,0-.29-.06-.25,0-.28-.06-.48,0-.3,0-.22v-.29l0-.25v-.26l0-.24,0-.3,0-.74,0-.31,0-.28,0-.24.05-.28.08-.29.14-.29.16-.46.13-.28.19-.27a2.13,2.13,0,0,0,.22-.21s.24-.27.25-.27l.27-.28.29-.19.19-.15.33-.11L988,610l.22-.08.43-.12.36-.07.32,0h.51l.3,0,.27.09.24,0,.28.1.27.11.48.3.24.13.23.22a1.88,1.88,0,0,0,.18.24l.17.14.21.27.24.46.16.21.11.35.09.55.07.24v.3l0,.27,0,.32v3.92l-.21.55,0,.26-.19.31-.1.23-.14.25-.22.25-.19.18-.18.21-.46.38-.27.12-.2.16-.29.14-.3.07-.3.13-.51.06h-.32l-.25,0Zm.57-9.92-.48,0-.71.26a1.55,1.55,0,0,0-.22.12l-.32.34-.33.38s-.12.2-.12.22l-.06.22-.08.24v.25l-.07.26,0,.22v.51l0,.31,0,.48.05.24-.05.51.06.23v.32l0,.29,0,.22,0,.29.08.46.34.84.3.33.17.16.64.33.22.08.22,0h.25l.48,0h.27l.79-.51.23-.14.25-.35.1-.23s.09-.24.09-.24l0-.24a1.22,1.22,0,0,0,.1-.24v-3.6l-.06-.73,0-.27s-.29-.57-.31-.57l-.66-.67-.22-.08-.24-.13-.24-.06-.25-.09Z" transform="translate(-880.14 -455.06)"/><path class="cls-1" d="M1000.9,621.09l-.41,0h-.79l-.26,0-.22,0-.25,0-.24,0h-1.59l-.28,0-.26,0-.28,0h-.51l-.3,0-.3-.09a.37.37,0,0,1-.23-.21l-.09-.25,0-.37v-.25l.12-.51.13-.27.18-.24.27-.2.25-.3.4-.45a1.6,1.6,0,0,1,.19-.16l.19-.25.85-.86.21-.17.19-.14.24-.27.46-.47.32-.38.19-.19.16-.17.22-.21.16-.16s.41-.57.41-.57l.25-.62,0-.63-.24-.6s-.27-.31-.28-.31l-.37-.22-.38-.09h-.25l-.26-.05a3.32,3.32,0,0,1-.44.06l-.38.18-.33.22-.53.81-.24.21a.25.25,0,0,1-.22.09l-.25,0h-.27l-.37-.16a.25.25,0,0,1-.17-.19l-.1-.2v-.32l.33-.79.17-.32a.81.81,0,0,0,.18-.19l.25-.21.19-.22.5-.3.3-.11.3-.07.24-.09.55-.1h.32l.28,0,.34.09.27.05.22.06.24,0,.35.17.27.1.24.14.22.21.19.14.55.62.26.55.09.58v.85l-.1.32,0,.24-.18.52-.42.73-.54.72-.18.2-.22.19-.19.16-.54.52-.17.23-.18.14-.17.17-.18.21a1,1,0,0,0-.2.16l-.64.68-.27.22-.27.35s-.09.11-.08.15,0,.11,0,.11l.25,0,.22,0h.75l.51,0,.47,0,.32,0,.47,0h1l.25.08a.26.26,0,0,1,.24.18l.13.28v.68l-.27.42-.44.12-.21,0Z" transform="translate(-880.14 -455.06)"/><path class="cls-1" d="M1007.14,621.35l-.3-.05-.78-.25-.32-.18-.22-.09-.24-.23-.22-.12-.24-.22-.2-.16-.21-.32-.14-.19-.15-.27-.19-.27-.09-.25-.06-.26-.1-.24-.06-.33v-.29l-.06-.25,0-.28-.07-.48,0-.3,0-.22v-.29l0-.25v-.26l0-.24,0-.3,0-.74,0-.31,0-.28v-.24l0-.28.08-.29.14-.29.16-.46.13-.28.19-.27a2.13,2.13,0,0,0,.22-.21s.24-.27.25-.27l.27-.28.29-.19.19-.15.33-.11.29-.12.22-.08.43-.12.36-.07.32,0h.51l.3,0,.27.09.24,0,.28.1.27.11.48.3.24.13.24.22s.16.24.17.24l.18.14.2.27.24.46.16.21.11.35.1.55.06.24v.3l0,.27,0,.32v3.92l-.21.55,0,.26-.19.31-.1.23-.14.25-.22.25-.19.18-.18.21-.46.38-.26.12-.21.16-.29.14-.3.07-.3.13-.51.06h-.32l-.25,0Zm.57-9.92-.48,0-.71.26a1.55,1.55,0,0,0-.22.12l-.32.34-.33.38s-.11.2-.11.22l-.07.22-.08.24v.25l-.07.26,0,.22v.27l0,.24,0,.31,0,.48.05.24-.05.51.07.23v.32l0,.29,0,.22,0,.29.08.46.34.84.3.33.17.16.64.33.22.08.22,0h.26l.47,0h.27l.8-.51.22-.14.25-.35.1-.23s.09-.24.09-.24l0-.24a1.22,1.22,0,0,0,.1-.24v-3.6l-.06-.73,0-.27s-.29-.57-.3-.57l-.67-.67-.22-.08-.24-.13-.24-.06-.25-.09Z" transform="translate(-880.14 -455.06)"/><path class="cls-1" d="M1026.39,616.71l-.11.31-.35.33-.38.11-.35,0-.37.05h.27l-.35,0-.28,0h-2.11l-.29,0-.48,0-.3,0h-.74l-.23,0h-.58l-.45,0-.35-.15a.3.3,0,0,1-.22-.23l-.08-.28,0-.46.13-.21.25-.19.23-.09.84,0,.67,0,.25,0,.28,0,.24,0,.32,0,.22-.05h.54a1.47,1.47,0,0,0,.29.05l.25-.06.53.05h.25l.25,0,.3,0,.24-.05h.48l.7.11.23.17.21.4A.28.28,0,0,1,1026.39,616.71Z" transform="translate(-880.14 -455.06)"/><path class="cls-1" d="M914.82,520c-.4,1.19-.89,2.32-1.26,3.48s-.63,2.42-1,3.59-.76,2.38-1.06,3.51a5.65,5.65,0,0,0,.79,5.18,11.4,11.4,0,0,1,.8,1.23,8.52,8.52,0,0,1,.5,1.19c.43,1.16.2,2.06-.57,2.49a1.87,1.87,0,0,1-2.32-1c-.36-.56-.86-1.29-1.13-1.26s-.76.79-1.06,1.43a19.18,19.18,0,0,1-1.69,2.78,20.43,20.43,0,0,1-2,2.63,8.11,8.11,0,0,1-2.65,1.82,9.45,9.45,0,0,1-3.16.6c-.06,0-.1-.07-.16-.07a5,5,0,0,1-4.45-2.69,7.59,7.59,0,0,1-1.06-3.18,8.41,8.41,0,0,1,.16-3.42,9.13,9.13,0,0,1,1.63-2.89,8,8,0,0,1,2.46-2.16,10.92,10.92,0,0,1,4.91-1.19c.79,0,1.62,0,2.52-.07,2.16-.1,2.65-.49,3.28-2.59.44-1.39.57-1.36,1-2.75.37-1.23.73-2.49,1.13-3.72s.7-2.52,1.06-3.78.73-2.49,1.13-3.72.8-2.39,1.23-3.48.93-2.36,1.39-3.45,1-2.26,1.59-3.32a23.44,23.44,0,0,0,1.2-2.43,1.35,1.35,0,0,0,.13-1.09c-.1-.2-.43-.3-.79-.4a26.6,26.6,0,0,0-3.19-.56,17.57,17.57,0,0,0-3.22.13,13.85,13.85,0,0,0-3.15.63,6.38,6.38,0,0,0-2.69,1.69,10.5,10.5,0,0,0-1.79,2.72,7.1,7.1,0,0,0-.77,3.09c.07,2.36.93,3.32,3.22,3.35.14,0,.14-.13.27-.13a5.15,5.15,0,0,1,1.23.13,1.44,1.44,0,0,1,1.09,1.3,1.47,1.47,0,0,1-.7,1.26,1.67,1.67,0,0,1-.63.33,6.72,6.72,0,0,1-5.07-.56,5.09,5.09,0,0,1-2.29-3.26,12.43,12.43,0,0,1-.44-3.41,11.27,11.27,0,0,1,.83-3.42,13.12,13.12,0,0,1,1.83-3,10.7,10.7,0,0,1,2.82-2.52,12.65,12.65,0,0,1,3.52-1.36,22.87,22.87,0,0,1,3.75-.27l.73.1c.2,0,.4-.13.63-.1a31.77,31.77,0,0,1,5.51.6,7.54,7.54,0,0,0,4.41-.26,5.56,5.56,0,0,1,5.21-.07,2.09,2.09,0,0,1,1.26,1.53,2,2,0,0,1-1,1.66,4,4,0,0,1-2.06.73c-.89.1-1.69.33-2.45.46a4.43,4.43,0,0,0-3.39,2.46c-.66,1.29-1.32,2.59-1.92,3.85s-1.23,2.62-1.76,3.95-1,2.68-1.43,4C915.45,517.58,915.19,518.8,914.82,520ZM906,536a1.78,1.78,0,0,0-1.33-.76,3.29,3.29,0,0,0-.57.07c-.1,0-.16,0-.26,0s-.43-.1-.67-.06a11.3,11.3,0,0,0-3.45,1,4.72,4.72,0,0,0-2.19,1.79,5.75,5.75,0,0,0-.93,2.69,3.59,3.59,0,0,0,1.63,3.58c1.16.63,2.19.1,3.42-.76.1-.07.23-.1.33-.17a.76.76,0,0,1,.2-.13,9.75,9.75,0,0,0,2.32-2.62,22.42,22.42,0,0,0,1.46-3.15A1.75,1.75,0,0,0,906,536Z" transform="translate(-880.14 -455.06)"/><path class="cls-1" d="M922.92,531.15a1.1,1.1,0,0,1-.2-1.23,12.3,12.3,0,0,1,.83-2c.66-1.13,1.32-2.23,2-3.35s1.2-2.29,1.83-3.42,1.39-2.16,2.06-3.29,1.16-2.29,1.79-3.42,1.36-2.19,2-3.32c.4-.66.9-1.29,1.39-2a2.37,2.37,0,0,1,1.46-1,2.76,2.76,0,0,1,2.33.23,2.28,2.28,0,0,1,.76,1.73,7,7,0,0,0,.17.89l.1,1.23c0,1.56.16,3.09.2,4.65,0,.93-.07,1.86,0,2.78s.13,1.9.17,2.83c0,1.12.13,2.29.2,3.48l.1,1.79s-.17,0-.17,0h.2a5.44,5.44,0,0,1-.13.56,8.91,8.91,0,0,1-.1,1.82,1.85,1.85,0,0,1-1.83,1.56c-.06,0-.1-.09-.16-.09a1.6,1.6,0,0,1-1.5-1.56,13.16,13.16,0,0,1-.13-1.53c0-.43-.07-.9-.13-1.33-.17-1.56-.57-2-2.23-2.19-.16,0-.33,0-.49,0s-.3.1-.47.07a6,6,0,0,0-3.08.33,4.31,4.31,0,0,0-2.06,2.32,14.49,14.49,0,0,1-1.36,2.13c-.1.16-.07.46-.17.63a2.58,2.58,0,0,1-2,1.13A1.29,1.29,0,0,1,922.92,531.15Zm12.94-12.61v-.23a3.35,3.35,0,0,1-.07-.53c-.06-.5-.13-1-.23-1.46a.68.68,0,0,0-.4-.57,1.16,1.16,0,0,0-.16,0c-.17,0-.27.17-.4.34a13.12,13.12,0,0,0-2.36,4,.82.82,0,0,0,0,.56c.14.2.27.43.5.5a2.67,2.67,0,0,0,2.36-.43,2.07,2.07,0,0,0,.7-1.83C935.83,518.8,935.86,518.71,935.86,518.54Z" transform="translate(-880.14 -455.06)"/><path class="cls-1" d="M959.92,508.52a5.58,5.58,0,0,1,2.45,2,5.83,5.83,0,0,1,1.13,3,3.7,3.7,0,0,1-.3,2,1.68,1.68,0,0,1-1.53,1,1.54,1.54,0,0,1-1.56-.93,6.47,6.47,0,0,1-.36-.8l-.1-.33a3.75,3.75,0,0,0-5-2.82,7,7,0,0,0-2.75,1.49,6.23,6.23,0,0,0-1.76,2.56c-.4,1-.67,2.06-1,3s-.67,2.06-.9,3.05-.4,2.09-.53,3.12a3.43,3.43,0,0,0,.79,2.92,3.84,3.84,0,0,0,3.19,1,6.37,6.37,0,0,0,4.25-2.42c.2-.27.43-.5.6-.77a9.23,9.23,0,0,1,.56-.76,5.32,5.32,0,0,1,1.06-1.06,1.59,1.59,0,0,1,2.06.16,1.42,1.42,0,0,1,.3,1.79,9.13,9.13,0,0,1-2.06,3.06,12.73,12.73,0,0,1-3.48,2.39,11.05,11.05,0,0,1-4,1.19,3.17,3.17,0,0,1-.63,0,6.46,6.46,0,0,1-4.52-1.59,6.2,6.2,0,0,1-1.39-2.39,7.37,7.37,0,0,1-.43-2.76,14.35,14.35,0,0,1,.63-3.42c.13-.43.3-.83.4-1.26.46-1.89.86-3.68,1.42-5.31a12.58,12.58,0,0,1,1.6-3,11.53,11.53,0,0,1,2.29-2.52,10.88,10.88,0,0,1,3-1.56,10.15,10.15,0,0,1,3.35-.56h.07A8.06,8.06,0,0,1,959.92,508.52Z" transform="translate(-880.14 -455.06)"/><path class="cls-1" d="M968.84,532a1.65,1.65,0,0,1-1.07-.43,1.53,1.53,0,0,1-.23-1.2,10.08,10.08,0,0,1,.27-1.43c.33-1.16.53-2.35.83-3.55s.66-2.32,1-3.48.56-2.36.9-3.55.66-2.33,1-3.49.6-2.35.89-3.52a12.63,12.63,0,0,1,.8-1.79,2.1,2.1,0,0,1,1.36-1.29,1.65,1.65,0,0,1,1.43.33,1.25,1.25,0,0,1,.53,1.06,8.73,8.73,0,0,1-.47,2.16c-.29,1.16-.49,2.32-.79,3.48s-.67,2.29-1,3.42c-.27.93-.6,1.86-.83,2.79s-.34,1.89-.6,2.82-.5,1.79-.63,2.76a1.6,1.6,0,0,0,0,1.06,1.51,1.51,0,0,0,.93.46c.66.07,1.36-.1,2-.06.27,0,.54.16.83.16s.57,0,.87,0c.5,0,1,0,1.52.07a1.31,1.31,0,0,1,1.27.86,1.64,1.64,0,0,1-.24,1.83,3,3,0,0,1-2.42.9c-.46,0-.9-.1-1.39-.1s-.67.06-1.07.06-.89-.06-1.39-.06c0,0,0,.06,0,.06-.3,0-.63-.06-1-.06C971.19,532.18,970,532.05,968.84,532Z" transform="translate(-880.14 -455.06)"/><path class="cls-1" d="M1000.76,508.81a1.18,1.18,0,0,1-.17,1.43c-1.16,1.59-2.42,3.16-3.35,4.35,0,0,0,0,0,.07-1.1,1.39-2.26,2.82-3.39,4.24a9.32,9.32,0,0,0-1.76,3.72c-.23,1-.56,2-.83,3l-.83,3a15.94,15.94,0,0,1-.76,2,2.14,2.14,0,0,1-1.59,1.3c-.17,0-.3,0-.43,0a1.42,1.42,0,0,1-1-.33,1.9,1.9,0,0,1-.4-1.63s-.07,0-.07-.06c.07-.2,0-.2.1-.4.1-.43.17-1,.3-1.46.2-.7.2-.7.37-1.36.39-1.46.73-3,1.16-4.45a7.26,7.26,0,0,0,0-4.28c-.4-1.5-.73-3-1.09-4.48-.17-.7-.34-1.36-.54-2,0-.16-.13-.3-.16-.46s0-.47-.07-.7c-.2-.89,0-1.56.67-1.92a2,2,0,0,1,2.62.66,7.7,7.7,0,0,1,.66,1.69c.07.17.13.14.17.3.13.43.16.86.3,1.26a17.5,17.5,0,0,0,.79,1.89c.14.3.2.73.5.8a1.18,1.18,0,0,0,.9-.36c.33-.34.59-.77.89-1.13.17-.17.07-.23.23-.4.37-.46.83-.8,1.2-1.23l1.79-2.19a3.42,3.42,0,0,1,2.29-1.53A1.52,1.52,0,0,1,1000.76,508.81Z" transform="translate(-880.14 -455.06)"/><path class="cls-1" d="M1023.25,508.55a1.93,1.93,0,0,1,.93,1.69s-.1,0-.14,0c0,.19.07.23,0,.43-.06.36-.16.83-.26,1.26-.33,1.16-.63,2.32-.93,3.45s-.7,2.29-1,3.45-.53,2.36-.83,3.49-.83,2.25-1.13,3.41-.49,2.33-.79,3.49c0,.1-.13.07-.13.16a9.06,9.06,0,0,1-.34,1,2.11,2.11,0,0,1-2.12,1.46s0,.1,0,.1a2,2,0,0,1-2-1.49,12.29,12.29,0,0,1-.73-2c-.27-1-.5-2-.77-3-.43-1.7-1-3.39-1.46-5.08a4.51,4.51,0,0,1-.06-.67c-.2-1-.37-1.52-1.06-1.52l0-.1c-.59,0-.66.69-.86,1.59,0,.23-.23.4-.3.6-.26.89-.46,1.79-.7,2.72l-.79,2.69c-.27,1-.47,2.09-.73,3.12a15.78,15.78,0,0,1-.67,1.82,2,2,0,0,1-1.82,1.4,1.93,1.93,0,0,1-1.2-.43,1.58,1.58,0,0,1-.43-1,6.81,6.81,0,0,1,.33-1.69c.34-1.2.64-2.39.93-3.59s.57-2.42.87-3.58.76-2.36,1.06-3.52.66-2.36,1-3.52.6-2.39.93-3.55a6.6,6.6,0,0,1,.76-1.82,2.28,2.28,0,0,1,1.89-1.2,2.23,2.23,0,0,1,1.76,1.3,8.88,8.88,0,0,1,.67,1.75c.06.14.1.14.13.27.37,1.29.6,2.59,1,3.88.24.93.57,1.86.8,2.79s.5,1.86.76,2.79l.1.36c.14.7.33,1.07.83,1s.6-.4.77-1a1.15,1.15,0,0,1,0-.37c.29-1,.53-2.06.79-3.12l.9-3.08c.3-1.17.56-2.33.86-3.49a15.55,15.55,0,0,1,.7-1.56,1.82,1.82,0,0,1,1-1.16A1.59,1.59,0,0,1,1023.25,508.55Z" transform="translate(-880.14 -455.06)"/><path class="cls-1" d="M922.39,592.61a1.5,1.5,0,0,1-1-1.52,5.53,5.53,0,0,1,.2-1.5c.29-1,.66-2,1-3s.5-2,.8-3,.63-2,1-3c.73-2.42.93-2.36,1.66-4.78.43-1.39.69-2.82,1.13-4.22l1.29-4.18a2.22,2.22,0,0,0,.13-.69c0-.1-.06-.24-.13-.27a.21.21,0,0,0-.23.07,4.81,4.81,0,0,0-1,1c-.7,1-1.37,2-2,3s-1.43,2-2.12,3c-1,1.53-2.13,3-3.16,4.48-.69,1-1.39,2-2,2.92s-1.26,2.1-1.93,3-1.52,1.83-2.15,2.76a6.08,6.08,0,0,1-1,1.19,1.33,1.33,0,0,1-1.32.1,1.4,1.4,0,0,1-.9-1c0-.19-.2-.29-.2-.43v-1.89h.07v-.23c.06-1.16,0-1.16.13-2.29.1-1.73.2-3.49.33-5.21.07-.93.1-1.86.17-2.82s.16-1.86.23-2.79.23-2.09.33-3.12c0-.1-.06-.1-.06-.2a3.35,3.35,0,0,0-.2-1.53.32.32,0,0,0-.2-.23.36.36,0,0,0-.2.07,9.43,9.43,0,0,0-.83,1.13c-.5,1.09-1,2.15-1.59,3.25s-1.1,2.12-1.66,3.18-1.13,2.1-1.76,3.16S904,579,903.38,580.1s-1.23,1.86-1.86,2.76-1.2,1.82-1.89,2.68-1.46,1.66-2.23,2.43-1.59,1.56-2.42,2.25a14.32,14.32,0,0,1-3.05,1.86,7.92,7.92,0,0,1-3.69.93,9.37,9.37,0,0,1-4.64-1.36,6,6,0,0,1-2.16-2,6.53,6.53,0,0,1-1.2-2.75,14.69,14.69,0,0,1,0-3.38,12.37,12.37,0,0,1,1-3.26,18.06,18.06,0,0,1,1.89-3.75,18.49,18.49,0,0,1,2.89-3.12,10,10,0,0,1,3.78-2,4.68,4.68,0,0,1,6.24,4.31,3.2,3.2,0,0,1-.73,2.29,1.4,1.4,0,0,1-1.39.7,1.31,1.31,0,0,1-1.13-1.17c0-.23-.1-.46-.13-.69s0-.5-.07-.73a1.73,1.73,0,0,0-.76-1.2,2,2,0,0,0-1.43-.26,3.89,3.89,0,0,0-1,.6,14.66,14.66,0,0,0-2.95,2.52,11,11,0,0,0-2.16,3.22,12.05,12.05,0,0,0-.86,3.81,4.37,4.37,0,0,0,1.63,3.89,5.09,5.09,0,0,0,4.54.76,10.67,10.67,0,0,0,3.52-2.06,20.35,20.35,0,0,0,3.82-3.75c.73-1,1.39-2.06,2.06-3s1.42-2,2-3.06,1.13-2.22,1.7-3.28,1.39-2.29,2-3.48,1.13-2.46,1.72-3.66,1.13-2.45,1.66-3.61,1.3-2.43,1.83-3.59c.33-.63.59-1.32.86-2a24,24,0,0,1,1.33-3.22c.06-.06,0-.1,0-.2a10.34,10.34,0,0,1,.93-1.19,1.58,1.58,0,0,1,1.76-.6,1.41,1.41,0,0,1,.83,1.43c0,.1.06.1.06.2a12.85,12.85,0,0,1-.06,2.32c-.2,1.79-.13,3.68-.27,5.48s-.3,3.41-.49,5.11c-.17,1.46-.17,3-.27,4.41s-.23,3.19-.43,4.75a5.38,5.38,0,0,0,.13,2.19.54.54,0,0,0,.33.3.24.24,0,0,0,.27-.07l.13-.17a14.77,14.77,0,0,0,1.56-1.89c.67-1.06,1.39-2.06,2.09-3.08s1.56-2,2.26-3,1.26-2.16,2-3.19,1.56-1.93,2.29-2.92,1.29-2.12,2-3.15.83-1.13,1.66-2.29,1.53-2,2.19-3.06c.37-.56.73-1.16,1.13-1.76a3.88,3.88,0,0,1,1.13-1.32,1.66,1.66,0,0,1,1.63,0,1.55,1.55,0,0,1,.83,1.36,5.77,5.77,0,0,1-.33,1.49c-.4,1.33-.87,2.66-1.3,4-.07.2,0,.23,0,.43-.4,1.27-.8,2.49-1.16,3.75s-.87,2.49-1.26,3.75-.64,2.56-1,3.82-.9,2.46-1.3,3.72-.76,2.52-1.13,3.78-.76,2.49-1.16,3.75-.89,2.49-1.29,3.72-.63,2.55-1,3.82a13.13,13.13,0,0,1-.67,1.36A1.58,1.58,0,0,1,922.39,592.61Z" transform="translate(-880.14 -455.06)"/><path class="cls-1" d="M952.78,572.4c-.33,1.3-.5,2.72-.86,4.08s-.8,2.69-1.2,4a11.57,11.57,0,0,1-1.46,3,11.39,11.39,0,0,1-2.39,2.36,13.9,13.9,0,0,1-3,1.56,8,8,0,0,1-3.15.73c-.1,0-.2-.1-.33-.1a7.1,7.1,0,0,1-3-.4,6.31,6.31,0,0,1-2.43-1.73,5.17,5.17,0,0,1-1.09-2.75,10.13,10.13,0,0,1,.13-3.92c.13-.6.33-1.19.47-1.82.43-1.76.86-3.59,1.42-5.35a14.05,14.05,0,0,1,1.76-3.58,11.15,11.15,0,0,1,2.82-2.79,12,12,0,0,1,3.55-1.76,9.37,9.37,0,0,1,4.42-.1,5.73,5.73,0,0,1,3.28,1.86,5.61,5.61,0,0,1,1.36,3.52A11.16,11.16,0,0,1,952.78,572.4Zm-4.38-4.21a3.92,3.92,0,0,0-3.62-.87,7.39,7.39,0,0,0-3.28,1.76,8,8,0,0,0-1.76,3.22c-.27.9-.57,1.76-.83,2.69l-.7,2.72c-.16.73-.4,1.43-.6,2.16a2.65,2.65,0,0,0-.19.56c0,.07.13.14.13.2a3.35,3.35,0,0,0,2.12,3.62,4,4,0,0,0,3.49-.1,6.49,6.49,0,0,0,3.81-3.78c.53-1.4.9-2.89,1.33-4.45s.76-2.92,1.1-4.51A3.43,3.43,0,0,0,948.4,568.19Z" transform="translate(-880.14 -455.06)"/><path class="cls-1" d="M972.36,566a6.94,6.94,0,0,1,1,4.42,9.61,9.61,0,0,1-1.13,4,12.38,12.38,0,0,1-2.69,3.15,14.59,14.59,0,0,1-1.49,1.23,2.32,2.32,0,0,0-.83,3.08c.13.37,0,.4.17.73s.26.6.36.87.17.33.23.49.24.57.34.83a1.88,1.88,0,0,1-.44,2.26,1.83,1.83,0,0,1-1.06.47,2.51,2.51,0,0,1-1.62-.8A4.16,4.16,0,0,1,964,585a4.81,4.81,0,0,0-.27-.73,14.87,14.87,0,0,0-.63-1.73,4.69,4.69,0,0,0-.7-1.42,1.74,1.74,0,0,0-1.39-.5,1.63,1.63,0,0,0-1.19.76,7.68,7.68,0,0,0-.73,1.53c0,.1,0,.1,0,.2-.14.43-.34.86-.47,1.29s-.07.83-.2,1.23a2.53,2.53,0,0,1-1.23,1.39,1.75,1.75,0,0,1-1.85.07,1.47,1.47,0,0,1-.54-1.56c.07-.43,0-.93.17-1.46.33-1.19.8-2.32,1.13-3.52s.46-2.42.79-3.58.74-2.36,1.07-3.55.56-2.39.89-3.55c.8-3.19,0,.13,1.16-4.52a2.68,2.68,0,0,1,2.76-2l5.77.13A6.34,6.34,0,0,1,972.36,566Zm-3.52,2.46a3.88,3.88,0,0,0-3.22-1.56c-.13,0-.3.07-.43.07a2,2,0,0,0-1.93,1.39c-.43,1.13-.83,2.26-1.16,3.45s-.5,2.39-.73,3.59c-.1.53-.2,1,0,1.22s.73.3,1.36.3a7,7,0,0,0,3.94-1.29,7.41,7.41,0,0,0,2.53-3.32A3.9,3.9,0,0,0,968.84,568.42Z" transform="translate(-880.14 -455.06)"/><path class="cls-1" d="M981.05,579.34a6.65,6.65,0,0,0-.24,1.13,3.55,3.55,0,0,0,.83,2.65,3.76,3.76,0,0,0,2.59,1.13,6.11,6.11,0,0,0,3.26-1,6.29,6.29,0,0,0,2.25-2.53.81.81,0,0,0,.07-.73.91.91,0,0,0-.63-.49,6.38,6.38,0,0,0-1.13-.2c-.33,0-.66-.07-1-.13a1.33,1.33,0,0,1-1.22-1.33,1.46,1.46,0,0,1,1-1.5,6.09,6.09,0,0,1,2.39-.33,4.83,4.83,0,0,0,1-.23h0s0,.07,0,.07c.3,0,.63,0,.93,0a16,16,0,0,1,1.86.23c1,.13,1.36.73,1.33,1.72,0,.34.13.7,0,1a13.06,13.06,0,0,1-1.69,3.89,11.2,11.2,0,0,1-3,2.92,13.36,13.36,0,0,1-3.72,2c-.17.06-.37-.1-.53-.07a14.42,14.42,0,0,1-2,.2,6.64,6.64,0,0,1-4.92-1.73,5.62,5.62,0,0,1-1.46-3.11,9.61,9.61,0,0,1,.07-3.49c.3-1.46.76-2.92,1.16-4.38s.77-3,1.26-4.38a11.35,11.35,0,0,1,1.8-3.12A10.86,10.86,0,0,1,984,565.1a11.09,11.09,0,0,1,3.36-1.36,9.75,9.75,0,0,1,3.55-.27,6.29,6.29,0,0,1,4,1.8,6,6,0,0,1,1.4,4.14,4.24,4.24,0,0,1-.14,1.5,1.71,1.71,0,0,1-1.72,1.19,1.63,1.63,0,0,1-1.56-1.13c-.1-.23,0-.53-.1-.76a4.28,4.28,0,0,0-.13-.66,4.12,4.12,0,0,0-1.86-2.19,3.82,3.82,0,0,0-2.79-.27,8,8,0,0,0-3.22,1.56,6.17,6.17,0,0,0-1.79,3.09c-.3.89-.63,1.79-.9,2.72s-.33,1.92-.56,2.85Z" transform="translate(-880.14 -455.06)"/><path class="cls-1" d="M997.3,586.67a1.11,1.11,0,0,1-.19-1.23,12.3,12.3,0,0,1,.83-2c.66-1.13,1.32-2.22,1.95-3.35s1.2-2.29,1.83-3.42,1.39-2.16,2.06-3.29,1.16-2.29,1.79-3.41,1.36-2.2,2-3.32c.4-.67.9-1.3,1.39-2a2.37,2.37,0,0,1,1.46-1,2.76,2.76,0,0,1,2.33.23,2.28,2.28,0,0,1,.76,1.73,6.66,6.66,0,0,0,.17.89l.1,1.23c0,1.56.16,3.09.19,4.65,0,.93-.06,1.86,0,2.79s.13,1.89.17,2.82c0,1.13.13,2.29.2,3.48l.1,1.79s-.17,0-.17,0h.2a5.44,5.44,0,0,1-.13.56,9,9,0,0,1-.1,1.83,1.85,1.85,0,0,1-1.83,1.56c-.06,0-.1-.1-.16-.1a1.59,1.59,0,0,1-1.5-1.56,13.16,13.16,0,0,1-.13-1.53c0-.43-.07-.9-.13-1.33-.17-1.56-.57-2-2.23-2.19-.16,0-.33,0-.49,0s-.3.1-.47.07a6,6,0,0,0-3.09.33,4.33,4.33,0,0,0-2,2.32,14.49,14.49,0,0,1-1.36,2.13c-.1.16-.07.46-.17.63a2.58,2.58,0,0,1-2,1.13A1.32,1.32,0,0,1,997.3,586.67Zm13-12.61v-.23a2.49,2.49,0,0,1-.07-.53c-.06-.5-.13-1-.23-1.46a.68.68,0,0,0-.4-.57c-.07,0-.13,0-.17,0s-.26.16-.39.33a13.12,13.12,0,0,0-2.36,4,.82.82,0,0,0,0,.56c.14.2.27.44.5.5a2.67,2.67,0,0,0,2.36-.43,2,2,0,0,0,.69-1.82C1010.21,574.33,1010.25,574.23,1010.25,574.06Z" transform="translate(-880.14 -455.06)"/><path class="cls-1" d="M1039.41,564.07a1.91,1.91,0,0,1,.93,1.69s-.1,0-.13,0c0,.2.07.23,0,.43-.07.36-.17.83-.26,1.26-.34,1.16-.63,2.32-.93,3.45s-.7,2.29-1,3.45-.53,2.36-.83,3.49-.83,2.25-1.13,3.41-.5,2.33-.79,3.49c0,.1-.14.07-.14.17-.1.33-.2.66-.33,1a2.11,2.11,0,0,1-2.12,1.46s0,.1,0,.1a2,2,0,0,1-2-1.49,12.29,12.29,0,0,1-.73-2c-.27-1-.5-2-.77-3-.43-1.7-1-3.39-1.46-5.08a4.49,4.49,0,0,1-.06-.66c-.2-1-.37-1.53-1.07-1.53l0-.1c-.6,0-.66.7-.86,1.59,0,.24-.23.4-.3.6-.27.89-.47,1.79-.7,2.72l-.79,2.69c-.27,1-.47,2.09-.73,3.12a17.89,17.89,0,0,1-.67,1.82,2,2,0,0,1-1.82,1.4,1.91,1.91,0,0,1-1.2-.43,1.55,1.55,0,0,1-.43-1,6.9,6.9,0,0,1,.33-1.69c.33-1.2.63-2.39.93-3.59s.57-2.42.86-3.58.77-2.36,1.07-3.52.66-2.35,1-3.52.6-2.39.93-3.55a6.73,6.73,0,0,1,.76-1.82,2,2,0,0,1,3.65.1,8.74,8.74,0,0,1,.67,1.76c.06.13.1.13.13.26.36,1.3.6,2.59,1,3.89.23.92.57,1.85.8,2.78s.5,1.86.76,2.79l.1.36c.13.7.33,1.07.83,1s.6-.39.76-1a1.53,1.53,0,0,1,0-.37c.3-1,.53-2.05.8-3.12l.9-3.08c.29-1.16.56-2.33.86-3.49a13.57,13.57,0,0,1,.7-1.56,1.82,1.82,0,0,1,1-1.16A1.59,1.59,0,0,1,1039.41,564.07Z" transform="translate(-880.14 -455.06)"/><path class="cls-1" d="M966.22,557l-.63-.23-.53-.73-.1-.8.2-.73,0-.89.1-.5.07-.7.13-.63.2-1.09.13-.57-.69-.13-.63,0h-1.56l-.47.1h-1.23l-.93-.1-.66-.33a.47.47,0,0,1-.4-.47l0-.6.23-1,.33-.43.6-.4.5-.2,1.76,0,1.39,0,.53-.06.6.06.5-.06.66.1.3-.87.17-.59.26-1.56,0-.47.23-1.23.27-.93.46-.73a.68.68,0,0,1,.53-.46l.63-.17,1,.07.37.27.33.53a.49.49,0,0,1,.1.46l-.27,1.76-.29,1.39,0,.54-.16.59,0,.53s-.19.6-.19.63l.76.2.53-.06.63.1.5-.1H974l.53,0,1.4.24.43.36.3.83a.64.64,0,0,1-.07.53l-.33.63-.87.7-.83.23-.73-.06L973,550h-.5l-.73.07-.6,0H970l-.53,0-.34.7-.06.5-.17.66,0,.5-.3,1.66v.53l-.5,1.46-.46.47-.9.46-.26.07Z" transform="translate(-880.14 -455.06)"/></svg>